  0
SECTION
  2
HEADER
  9
$CLAYER
  8
Walls
  0
ENDSEC
  0
SECTION
  2
TABLES
  0
TABLE
  2
LAYER
  0
LAYER
  2
0
 62
256
  0
LAYER
  2
Walls
 62
1
  0
ENDTAB
  0
ENDSEC
  0
SECTION
  2
ENTITIES
  0
LINE
  8
Walls
100
AcDbEntity
 10
3.247449E+001
 20
1.718367E+001
 30
0.000000E+000
 11
1.259745E+002
 21
1.718367E+001
 31
0.000000E+000
  0
LINE
  8
Walls
100
AcDbEntity
 10
3.247449E+001
 20
1.718367E+001
 30
0.000000E+000
 11
3.247449E+001
 21
2.768367E+001
 31
0.000000E+000
  0
LINE
  8
Walls
100
AcDbEntity
 10
3.247449E+001
 20
2.768367E+001
 30
0.000000E+000
 11
2.797449E+001
 21
2.768367E+001
 31
0.000000E+000
  0
LINE
  8
Walls
100
AcDbEntity
 10
2.797449E+001
 20
2.768367E+001
 30
0.000000E+000
 11
2.797449E+001
 21
1.718367E+001
 31
0.000000E+000
  0
LINE
  8
Walls
100
AcDbEntity
 10
2.797449E+001
 20
1.718367E+001
 30
0.000000E+000
 11
4.474490E+000
 21
1.718367E+001
 31
0.000000E+000
  0
LINE
  8
Walls
100
AcDbEntity
 10
4.474490E+000
 20
1.718367E+001
 30
0.000000E+000
 11
4.474490E+000
 21
1.024337E+002
 31
0.000000E+000
  0
LINE
  8
Walls
100
AcDbEntity
 10
4.474490E+000
 20
1.024337E+002
 30
0.000000E+000
 11
2.797449E+001
 21
1.024337E+002
 31
0.000000E+000
  0
LINE
  8
Walls
100
AcDbEntity
 10
2.797449E+001
 20
1.024337E+002
 30
0.000000E+000
 11
2.797449E+001
 21
9.543367E+001
 31
0.000000E+000
  0
LINE
  8
Walls
100
AcDbEntity
 10
2.797449E+001
 20
9.543367E+001
 30
0.000000E+000
 11
3.247449E+001
 21
9.543367E+001
 31
0.000000E+000
  0
LINE
  8
Walls
100
AcDbEntity
 10
3.247449E+001
 20
1.069337E+002
 30
0.000000E+000
 11
3.247449E+001
 21
9.543367E+001
 31
0.000000E+000
  0
LINE
  8
Walls
100
AcDbEntity
 10
3.247449E+001
 20
1.069337E+002
 30
0.000000E+000
 11
4.474490E+000
 21
1.069337E+002
 31
0.000000E+000
  0
LINE
  8
Walls
100
AcDbEntity
 10
4.474490E+000
 20
1.069337E+002
 30
0.000000E+000
 11
4.474490E+000
 21
1.149337E+002
 31
0.000000E+000
  0
LINE
  8
Walls
100
AcDbEntity
 10
4.474490E+000
 20
1.149337E+002
 30
0.000000E+000
 11
-2.551020E-002
 21
1.149337E+002
 31
0.000000E+000
  0
LINE
  8
Walls
100
AcDbEntity
 10
1.259745E+002
 20
1.649337E+002
 30
0.000000E+000
 11
5.647450E+001
 21
1.649337E+002
 31
0.000000E+000
  0
LINE
  8
Walls
100
AcDbEntity
 10
5.647450E+001
 20
1.649337E+002
 30
0.000000E+000
 11
5.647450E+001
 21
1.694337E+002
 31
0.000000E+000
  0
LINE
  8
Walls
100
AcDbEntity
 10
2.447450E+001
 20
1.694337E+002
 30
0.000000E+000
 11
2.447450E+001
 21
1.649337E+002
 31
0.000000E+000
  0
LINE
  8
Walls
100
AcDbEntity
 10
4.474490E+000
 20
1.469337E+002
 30
0.000000E+000
 11
-2.551000E-002
 21
1.469337E+002
 31
0.000000E+000
  0
LINE
  8
Walls
100
AcDbEntity
 10
2.447450E+001
 20
1.694337E+002
 30
0.000000E+000
 11
4.474500E+000
 21
1.694337E+002
 31
0.000000E+000
  0
LINE
  8
Walls
100
AcDbEntity
 10
4.474500E+000
 20
1.694337E+002
 30
0.000000E+000
 11
4.474500E+000
 21
2.354337E+002
 31
0.000000E+000
  0
LINE
  8
Walls
100
AcDbEntity
 10
4.474490E+000
 20
1.469337E+002
 30
0.000000E+000
 11
4.474490E+000
 21
1.649337E+002
 31
0.000000E+000
  0
LINE
  8
Walls
100
AcDbEntity
 10
4.474490E+000
 20
1.649337E+002
 30
0.000000E+000
 11
2.447450E+001
 21
1.649337E+002
 31
0.000000E+000
  0
LINE
  8
Walls
100
AcDbEntity
 10
4.474500E+000
 20
2.354337E+002
 30
0.000000E+000
 11
-1.315255E+002
 21
2.354337E+002
 31
0.000000E+000
  0
LINE
  8
Walls
100
AcDbEntity
 10
-1.315255E+002
 20
2.354337E+002
 30
0.000000E+000
 11
-1.315255E+002
 21
4.139337E+002
 31
0.000000E+000
  0
LINE
  8
Walls
100
AcDbEntity
 10
5.647450E+001
 20
1.694337E+002
 30
0.000000E+000
 11
1.259745E+002
 21
1.694337E+002
 31
0.000000E+000
  0
LINE
  8
Walls
100
AcDbEntity
 10
1.259745E+002
 20
1.839337E+002
 30
0.000000E+000
 11
1.304745E+002
 21
1.839337E+002
 31
0.000000E+000
  0
LINE
  8
Walls
100
AcDbEntity
 10
1.304745E+002
 20
1.694337E+002
 30
0.000000E+000
 11
2.509745E+002
 21
1.694337E+002
 31
0.000000E+000
  0
LINE
  8
Walls
100
AcDbEntity
 10
2.509745E+002
 20
1.694337E+002
 30
0.000000E+000
 11
2.509745E+002
 21
2.024337E+002
 31
0.000000E+000
  0
LINE
  8
Walls
100
AcDbEntity
 10
2.509745E+002
 20
2.024337E+002
 30
0.000000E+000
 11
2.554745E+002
 21
2.024337E+002
 31
0.000000E+000
  0
LINE
  8
Walls
100
AcDbEntity
 10
2.554745E+002
 20
2.024337E+002
 30
0.000000E+000
 11
2.554745E+002
 21
1.649337E+002
 31
0.000000E+000
  0
LINE
  8
Walls
100
AcDbEntity
 10
2.554745E+002
 20
1.649337E+002
 30
0.000000E+000
 11
1.304745E+002
 21
1.649337E+002
 31
0.000000E+000
  0
LINE
  8
Walls
100
AcDbEntity
 10
2.509745E+002
 20
2.359337E+002
 30
0.000000E+000
 11
2.509745E+002
 21
2.659337E+002
 31
0.000000E+000
  0
LINE
  8
Walls
100
AcDbEntity
 10
2.509745E+002
 20
2.659337E+002
 30
0.000000E+000
 11
1.304745E+002
 21
2.659337E+002
 31
0.000000E+000
  0
LINE
  8
Walls
100
AcDbEntity
 10
2.509745E+002
 20
2.359337E+002
 30
0.000000E+000
 11
2.554745E+002
 21
2.359337E+002
 31
0.000000E+000
  0
LINE
  8
Walls
100
AcDbEntity
 10
2.554745E+002
 20
2.359337E+002
 30
0.000000E+000
 11
2.554745E+002
 21
2.659337E+002
 31
0.000000E+000
  0
LINE
  8
Walls
100
AcDbEntity
 10
1.304745E+002
 20
2.659337E+002
 30
0.000000E+000
 11
1.304745E+002
 21
2.404337E+002
 31
0.000000E+000
  0
LINE
  8
Walls
100
AcDbEntity
 10
1.304745E+002
 20
2.404337E+002
 30
0.000000E+000
 11
1.259745E+002
 21
2.404337E+002
 31
0.000000E+000
  0
LINE
  8
Walls
100
AcDbEntity
 10
1.259745E+002
 20
2.404337E+002
 30
0.000000E+000
 11
1.259745E+002
 21
3.094337E+002
 31
0.000000E+000
  0
LINE
  8
Walls
100
AcDbEntity
 10
1.259745E+002
 20
1.839337E+002
 30
0.000000E+000
 11
1.259745E+002
 21
1.694337E+002
 31
0.000000E+000
  0
LINE
  8
Walls
100
AcDbEntity
 10
1.259745E+002
 20
1.649337E+002
 30
0.000000E+000
 11
1.259745E+002
 21
1.718367E+001
 31
0.000000E+000
  0
LINE
  8
Walls
100
AcDbEntity
 10
1.259745E+002
 20
3.094337E+002
 30
0.000000E+000
 11
9.047450E+001
 21
3.094337E+002
 31
0.000000E+000
  0
LINE
  8
Walls
100
AcDbEntity
 10
9.047450E+001
 20
3.094337E+002
 30
0.000000E+000
 11
9.047450E+001
 21
3.214337E+002
 31
0.000000E+000
  0
LINE
  8
Walls
100
AcDbEntity
 10
9.047450E+001
 20
3.799337E+002
 30
0.000000E+000
 11
9.047450E+001
 21
4.139337E+002
 31
0.000000E+000
  0
LINE
  8
Walls
100
AcDbEntity
 10
1.304745E+002
 20
1.839337E+002
 30
0.000000E+000
 11
1.304745E+002
 21
1.694337E+002
 31
0.000000E+000
  0
LINE
  8
Walls
100
AcDbEntity
 10
9.047450E+001
 20
3.214337E+002
 30
0.000000E+000
 11
9.497450E+001
 21
3.214337E+002
 31
0.000000E+000
  0
LINE
  8
Walls
100
AcDbEntity
 10
9.047450E+001
 20
3.799337E+002
 30
0.000000E+000
 11
9.497450E+001
 21
3.799337E+002
 31
0.000000E+000
  0
LINE
  8
Walls
100
AcDbEntity
 10
9.497450E+001
 20
3.214337E+002
 30
0.000000E+000
 11
9.497450E+001
 21
3.139337E+002
 31
0.000000E+000
  0
LINE
  8
Walls
100
AcDbEntity
 10
9.497450E+001
 20
3.139337E+002
 30
0.000000E+000
 11
1.259745E+002
 21
3.139337E+002
 31
0.000000E+000
  0
LINE
  8
Walls
100
AcDbEntity
 10
9.047450E+001
 20
4.139337E+002
 30
0.000000E+000
 11
8.247450E+001
 21
4.139337E+002
 31
0.000000E+000
  0
LINE
  8
Walls
100
AcDbEntity
 10
1.047450E+001
 20
4.139337E+002
 30
0.000000E+000
 11
-1.315255E+002
 21
4.139337E+002
 31
0.000000E+000
  0
LINE
  8
Walls
100
AcDbEntity
 10
9.497450E+001
 20
3.799337E+002
 30
0.000000E+000
 11
9.497450E+001
 21
4.139337E+002
 31
0.000000E+000
  0
LINE
  8
Walls
100
AcDbEntity
 10
9.497450E+001
 20
4.139337E+002
 30
0.000000E+000
 11
1.259745E+002
 21
4.139337E+002
 31
0.000000E+000
  0
LINE
  8
Walls
100
AcDbEntity
 10
1.259745E+002
 20
4.139337E+002
 30
0.000000E+000
 11
1.259745E+002
 21
3.139337E+002
 31
0.000000E+000
  0
LINE
  8
Walls
100
AcDbEntity
 10
2.554745E+002
 20
2.659337E+002
 30
0.000000E+000
 11
3.594745E+002
 21
2.659337E+002
 31
0.000000E+000
  0
LINE
  8
Walls
100
AcDbEntity
 10
3.594745E+002
 20
2.659337E+002
 30
0.000000E+000
 11
3.594745E+002
 21
1.459337E+002
 31
0.000000E+000
  0
ENDSEC
  0
EOF
