  0
SECTION
  2
HEADER
  9
$CLAYER
  8
Walls
  0
ENDSEC
  0
SECTION
  2
TABLES
  0
TABLE
  2
LAYER
  0
LAYER
  2
0
 62
256
  0
LAYER
  2
Walls
 62
1
  0
ENDTAB
  0
ENDSEC
  0
SECTION
  2
ENTITIES
  0
LINE
  8
Walls
100
AcDbLine
 10
3.2474490000000003E+001
 20
1.7183669999999999E+001
 30
0.0000000000000000E+000
 11
1.2597450000000001E+002
 21
1.7183669999999999E+001
 31
0.0000000000000000E+000
  0
LINE
  8
Walls
100
AcDbLine
 10
3.2474490000000003E+001
 20
1.7183669999999999E+001
 30
0.0000000000000000E+000
 11
3.2474490000000003E+001
 21
2.7683669999999999E+001
 31
0.0000000000000000E+000
  0
LINE
  8
Walls
100
AcDbLine
 10
3.2474490000000003E+001
 20
2.7683669999999999E+001
 30
0.0000000000000000E+000
 11
2.7974489999999999E+001
 21
2.7683669999999999E+001
 31
0.0000000000000000E+000
  0
LINE
  8
Walls
100
AcDbLine
 10
2.7974489999999999E+001
 20
2.7683669999999999E+001
 30
0.0000000000000000E+000
 11
2.7974489999999999E+001
 21
1.7183669999999999E+001
 31
0.0000000000000000E+000
  0
LINE
  8
Walls
100
AcDbLine
 10
2.7974489999999999E+001
 20
1.7183669999999999E+001
 30
0.0000000000000000E+000
 11
4.4744900000000003E+000
 21
1.7183669999999999E+001
 31
0.0000000000000000E+000
  0
LINE
  8
Walls
100
AcDbLine
 10
4.4744900000000003E+000
 20
1.7183669999999999E+001
 30
0.0000000000000000E+000
 11
4.4744900000000003E+000
 21
1.0243370000000000E+002
 31
0.0000000000000000E+000
  0
LINE
  8
Walls
100
AcDbLine
 10
4.4744900000000003E+000
 20
1.0243370000000000E+002
 30
0.0000000000000000E+000
 11
2.7974489999999999E+001
 21
1.0243370000000000E+002
 31
0.0000000000000000E+000
  0
LINE
  8
Walls
100
AcDbLine
 10
2.7974489999999999E+001
 20
1.0243370000000000E+002
 30
0.0000000000000000E+000
 11
2.7974489999999999E+001
 21
9.5433670000000006E+001
 31
0.0000000000000000E+000
  0
LINE
  8
Walls
100
AcDbLine
 10
2.7974489999999999E+001
 20
9.5433670000000006E+001
 30
0.0000000000000000E+000
 11
3.2474490000000003E+001
 21
9.5433670000000006E+001
 31
0.0000000000000000E+000
  0
LINE
  8
Walls
100
AcDbLine
 10
3.2474490000000003E+001
 20
1.0693370000000000E+002
 30
0.0000000000000000E+000
 11
3.2474490000000003E+001
 21
9.5433670000000006E+001
 31
0.0000000000000000E+000
  0
LINE
  8
Walls
100
AcDbLine
 10
3.2474490000000003E+001
 20
1.0693370000000000E+002
 30
0.0000000000000000E+000
 11
4.4744900000000003E+000
 21
1.0693370000000000E+002
 31
0.0000000000000000E+000
  0
LINE
  8
Walls
100
AcDbLine
 10
4.4744900000000003E+000
 20
1.0693370000000000E+002
 30
0.0000000000000000E+000
 11
4.4744900000000003E+000
 21
1.1493370000000000E+002
 31
0.0000000000000000E+000
  0
LINE
  8
Walls
100
AcDbLine
 10
4.4744900000000003E+000
 20
1.1493370000000000E+002
 30
0.0000000000000000E+000
 11
-2.5510200000000000E-002
 21
1.1493370000000000E+002
 31
0.0000000000000000E+000
  0
LINE
  8
Walls
100
AcDbLine
 10
1.2597450000000001E+002
 20
1.6493369999999999E+002
 30
0.0000000000000000E+000
 11
5.6474499999999999E+001
 21
1.6493369999999999E+002
 31
0.0000000000000000E+000
  0
LINE
  8
Walls
100
AcDbLine
 10
5.6474499999999999E+001
 20
1.6493369999999999E+002
 30
0.0000000000000000E+000
 11
5.6474499999999999E+001
 21
1.6943369999999999E+002
 31
0.0000000000000000E+000
  0
LINE
  8
Walls
100
AcDbLine
 10
2.4474499999999999E+001
 20
1.6943369999999999E+002
 30
0.0000000000000000E+000
 11
2.4474499999999999E+001
 21
1.6493369999999999E+002
 31
0.0000000000000000E+000
  0
LINE
  8
Walls
100
AcDbLine
 10
4.4744900000000003E+000
 20
1.4693369999999999E+002
 30
0.0000000000000000E+000
 11
-2.5510000000000001E-002
 21
1.4693369999999999E+002
 31
0.0000000000000000E+000
  0
LINE
  8
Walls
100
AcDbLine
 10
2.4474499999999999E+001
 20
1.6943369999999999E+002
 30
0.0000000000000000E+000
 11
4.4744999999999999E+000
 21
1.6943369999999999E+002
 31
0.0000000000000000E+000
  0
LINE
  8
Walls
100
AcDbLine
 10
4.4744999999999999E+000
 20
1.6943369999999999E+002
 30
0.0000000000000000E+000
 11
4.4744999999999999E+000
 21
2.3543369999999999E+002
 31
0.0000000000000000E+000
  0
LINE
  8
Walls
100
AcDbLine
 10
4.4744900000000003E+000
 20
1.4693369999999999E+002
 30
0.0000000000000000E+000
 11
4.4744900000000003E+000
 21
1.6493369999999999E+002
 31
0.0000000000000000E+000
  0
LINE
  8
Walls
100
AcDbLine
 10
4.4744900000000003E+000
 20
1.6493369999999999E+002
 30
0.0000000000000000E+000
 11
2.4474499999999999E+001
 21
1.6493369999999999E+002
 31
0.0000000000000000E+000
  0
LINE
  8
Walls
100
AcDbLine
 10
4.4744999999999999E+000
 20
2.3543369999999999E+002
 30
0.0000000000000000E+000
 11
-1.3152549999999999E+002
 21
2.3543369999999999E+002
 31
0.0000000000000000E+000
  0
LINE
  8
Walls
100
AcDbLine
 10
-1.3152549999999999E+002
 20
2.3543369999999999E+002
 30
0.0000000000000000E+000
 11
-1.3152549999999999E+002
 21
4.1393369999999999E+002
 31
0.0000000000000000E+000
  0
LINE
  8
Walls
100
AcDbLine
 10
5.6474499999999999E+001
 20
1.6943369999999999E+002
 30
0.0000000000000000E+000
 11
1.2597450000000001E+002
 21
1.6943369999999999E+002
 31
0.0000000000000000E+000
  0
LINE
  8
Walls
100
AcDbLine
 10
1.2597450000000001E+002
 20
1.8393369999999999E+002
 30
0.0000000000000000E+000
 11
1.3047450000000001E+002
 21
1.8393369999999999E+002
 31
0.0000000000000000E+000
  0
LINE
  8
Walls
100
AcDbLine
 10
1.3047450000000001E+002
 20
1.6943369999999999E+002
 30
0.0000000000000000E+000
 11
2.5097450000000001E+002
 21
1.6943369999999999E+002
 31
0.0000000000000000E+000
  0
LINE
  8
Walls
100
AcDbLine
 10
2.5097450000000001E+002
 20
1.6943369999999999E+002
 30
0.0000000000000000E+000
 11
2.5097450000000001E+002
 21
2.0243369999999999E+002
 31
0.0000000000000000E+000
  0
LINE
  8
Walls
100
AcDbLine
 10
2.5097450000000001E+002
 20
2.0243369999999999E+002
 30
0.0000000000000000E+000
 11
2.5547450000000001E+002
 21
2.0243369999999999E+002
 31
0.0000000000000000E+000
  0
LINE
  8
Walls
100
AcDbLine
 10
2.5547450000000001E+002
 20
2.0243369999999999E+002
 30
0.0000000000000000E+000
 11
2.5547450000000001E+002
 21
1.6493369999999999E+002
 31
0.0000000000000000E+000
  0
LINE
  8
Walls
100
AcDbLine
 10
2.5547450000000001E+002
 20
1.6493369999999999E+002
 30
0.0000000000000000E+000
 11
1.3047450000000001E+002
 21
1.6493369999999999E+002
 31
0.0000000000000000E+000
  0
LINE
  8
Walls
100
AcDbLine
 10
2.5097450000000001E+002
 20
2.3593369999999999E+002
 30
0.0000000000000000E+000
 11
2.5097450000000001E+002
 21
2.6593369999999999E+002
 31
0.0000000000000000E+000
  0
LINE
  8
Walls
100
AcDbLine
 10
2.5097450000000001E+002
 20
2.6593369999999999E+002
 30
0.0000000000000000E+000
 11
1.3047450000000001E+002
 21
2.6593369999999999E+002
 31
0.0000000000000000E+000
  0
LINE
  8
Walls
100
AcDbLine
 10
2.5097450000000001E+002
 20
2.3593369999999999E+002
 30
0.0000000000000000E+000
 11
2.5547450000000001E+002
 21
2.3593369999999999E+002
 31
0.0000000000000000E+000
  0
LINE
  8
Walls
100
AcDbLine
 10
2.5547450000000001E+002
 20
2.3593369999999999E+002
 30
0.0000000000000000E+000
 11
2.5547450000000001E+002
 21
2.6593369999999999E+002
 31
0.0000000000000000E+000
  0
LINE
  8
Walls
100
AcDbLine
 10
1.3047450000000001E+002
 20
2.6593369999999999E+002
 30
0.0000000000000000E+000
 11
1.3047450000000001E+002
 21
2.4043369999999999E+002
 31
0.0000000000000000E+000
  0
LINE
  8
Walls
100
AcDbLine
 10
1.3047450000000001E+002
 20
2.4043369999999999E+002
 30
0.0000000000000000E+000
 11
1.2597450000000001E+002
 21
2.4043369999999999E+002
 31
0.0000000000000000E+000
  0
LINE
  8
Walls
100
AcDbLine
 10
1.2597450000000001E+002
 20
2.4043369999999999E+002
 30
0.0000000000000000E+000
 11
1.2597450000000001E+002
 21
3.0943369999999999E+002
 31
0.0000000000000000E+000
  0
LINE
  8
Walls
100
AcDbLine
 10
1.2597450000000001E+002
 20
1.8393369999999999E+002
 30
0.0000000000000000E+000
 11
1.2597450000000001E+002
 21
1.6943369999999999E+002
 31
0.0000000000000000E+000
  0
LINE
  8
Walls
100
AcDbLine
 10
1.2597450000000001E+002
 20
1.6493369999999999E+002
 30
0.0000000000000000E+000
 11
1.2597450000000001E+002
 21
1.7183669999999999E+001
 31
0.0000000000000000E+000
  0
LINE
  8
Walls
100
AcDbLine
 10
1.2597450000000001E+002
 20
3.0943369999999999E+002
 30
0.0000000000000000E+000
 11
9.0474500000000006E+001
 21
3.0943369999999999E+002
 31
0.0000000000000000E+000
  0
LINE
  8
Walls
100
AcDbLine
 10
9.0474500000000006E+001
 20
3.0943369999999999E+002
 30
0.0000000000000000E+000
 11
9.0474500000000006E+001
 21
3.2143369999999999E+002
 31
0.0000000000000000E+000
  0
LINE
  8
Walls
100
AcDbLine
 10
9.0474500000000006E+001
 20
3.7993369999999999E+002
 30
0.0000000000000000E+000
 11
9.0474500000000006E+001
 21
4.1393369999999999E+002
 31
0.0000000000000000E+000
  0
LINE
  8
Walls
100
AcDbLine
 10
1.3047450000000001E+002
 20
1.8393369999999999E+002
 30
0.0000000000000000E+000
 11
1.3047450000000001E+002
 21
1.6943369999999999E+002
 31
0.0000000000000000E+000
  0
LINE
  8
Walls
100
AcDbLine
 10
9.0474500000000006E+001
 20
3.2143369999999999E+002
 30
0.0000000000000000E+000
 11
9.4974500000000006E+001
 21
3.2143369999999999E+002
 31
0.0000000000000000E+000
  0
LINE
  8
Walls
100
AcDbLine
 10
9.0474500000000006E+001
 20
3.7993369999999999E+002
 30
0.0000000000000000E+000
 11
9.4974500000000006E+001
 21
3.7993369999999999E+002
 31
0.0000000000000000E+000
  0
LINE
  8
Walls
100
AcDbLine
 10
9.4974500000000006E+001
 20
3.2143369999999999E+002
 30
0.0000000000000000E+000
 11
9.4974500000000006E+001
 21
3.1393369999999999E+002
 31
0.0000000000000000E+000
  0
LINE
  8
Walls
100
AcDbLine
 10
9.4974500000000006E+001
 20
3.1393369999999999E+002
 30
0.0000000000000000E+000
 11
1.2597450000000001E+002
 21
3.1393369999999999E+002
 31
0.0000000000000000E+000
  0
LINE
  8
Walls
100
AcDbLine
 10
9.0474500000000006E+001
 20
4.1393369999999999E+002
 30
0.0000000000000000E+000
 11
8.2474500000000006E+001
 21
4.1393369999999999E+002
 31
0.0000000000000000E+000
  0
LINE
  8
Walls
100
AcDbLine
 10
1.0474500000000001E+001
 20
4.1393369999999999E+002
 30
0.0000000000000000E+000
 11
-1.3152549999999999E+002
 21
4.1393369999999999E+002
 31
0.0000000000000000E+000
  0
LINE
  8
Walls
100
AcDbLine
 10
9.4974500000000006E+001
 20
3.7993369999999999E+002
 30
0.0000000000000000E+000
 11
9.4974500000000006E+001
 21
4.1393369999999999E+002
 31
0.0000000000000000E+000
  0
LINE
  8
Walls
100
AcDbLine
 10
9.4974500000000006E+001
 20
4.1393369999999999E+002
 30
0.0000000000000000E+000
 11
1.2597450000000001E+002
 21
4.1393369999999999E+002
 31
0.0000000000000000E+000
  0
LINE
  8
Walls
100
AcDbLine
 10
1.2597450000000001E+002
 20
4.1393369999999999E+002
 30
0.0000000000000000E+000
 11
1.2597450000000001E+002
 21
3.1393369999999999E+002
 31
0.0000000000000000E+000
  0
LINE
  8
Walls
100
AcDbLine
 10
2.5547450000000001E+002
 20
2.6593369999999999E+002
 30
0.0000000000000000E+000
 11
3.5947449999999998E+002
 21
2.6593369999999999E+002
 31
0.0000000000000000E+000
  0
LINE
  8
Walls
100
AcDbLine
 10
3.5947449999999998E+002
 20
2.6593369999999999E+002
 30
0.0000000000000000E+000
 11
3.5947449999999998E+002
 21
1.4593369999999999E+002
 31
0.0000000000000000E+000
  0
ENDSEC
  0
EOF
