  0
SECTION
  2
HEADER
  9
$CLAYER
  8
Yard
  0
ENDSEC
  0
SECTION
  2
TABLES
  0
TABLE
  2
LAYER
  0
LAYER
  2
0
 62
256
  0
LAYER
  2
Walls
 62
1
  0
LAYER
  2
Yard
 62
82
  0
ENDTAB
  0
ENDSEC
  0
SECTION
  2
ENTITIES
  0
LINE
  8
Walls
100
AcDbLine
 10
3.2474490000000003E+001
 20
1.7183669999999999E+001
 30
0.0000000000000000E+000
 11
1.2597450000000001E+002
 21
1.7183669999999999E+001
 31
0.0000000000000000E+000
  0
LINE
  8
Walls
100
AcDbLine
 10
3.2474490000000003E+001
 20
1.7183669999999999E+001
 30
0.0000000000000000E+000
 11
3.2474490000000003E+001
 21
2.7683669999999999E+001
 31
0.0000000000000000E+000
  0
LINE
  8
Walls
100
AcDbLine
 10
3.2474490000000003E+001
 20
2.7683669999999999E+001
 30
0.0000000000000000E+000
 11
2.7974489999999999E+001
 21
2.7683669999999999E+001
 31
0.0000000000000000E+000
  0
LINE
  8
Walls
100
AcDbLine
 10
2.7974489999999999E+001
 20
2.7683669999999999E+001
 30
0.0000000000000000E+000
 11
2.7974489999999999E+001
 21
1.7183669999999999E+001
 31
0.0000000000000000E+000
  0
LINE
  8
Walls
100
AcDbLine
 10
2.7974489999999999E+001
 20
1.7183669999999999E+001
 30
0.0000000000000000E+000
 11
4.4744900000000003E+000
 21
1.7183669999999999E+001
 31
0.0000000000000000E+000
  0
LINE
  8
Walls
100
AcDbLine
 10
4.4744900000000003E+000
 20
1.7183669999999999E+001
 30
0.0000000000000000E+000
 11
4.4744900000000003E+000
 21
1.0243370000000000E+002
 31
0.0000000000000000E+000
  0
LINE
  8
Walls
100
AcDbLine
 10
4.4744900000000003E+000
 20
1.0243370000000000E+002
 30
0.0000000000000000E+000
 11
2.7974489999999999E+001
 21
1.0243370000000000E+002
 31
0.0000000000000000E+000
  0
LINE
  8
Walls
100
AcDbLine
 10
2.7974489999999999E+001
 20
1.0243370000000000E+002
 30
0.0000000000000000E+000
 11
2.7974489999999999E+001
 21
9.5433670000000006E+001
 31
0.0000000000000000E+000
  0
LINE
  8
Walls
100
AcDbLine
 10
2.7974489999999999E+001
 20
9.5433670000000006E+001
 30
0.0000000000000000E+000
 11
3.2474490000000003E+001
 21
9.5433670000000006E+001
 31
0.0000000000000000E+000
  0
LINE
  8
Walls
100
AcDbLine
 10
3.2474490000000003E+001
 20
1.0693370000000000E+002
 30
0.0000000000000000E+000
 11
3.2474490000000003E+001
 21
9.5433670000000006E+001
 31
0.0000000000000000E+000
  0
LINE
  8
Walls
100
AcDbLine
 10
3.2474490000000003E+001
 20
1.0693370000000000E+002
 30
0.0000000000000000E+000
 11
4.4744900000000003E+000
 21
1.0693370000000000E+002
 31
0.0000000000000000E+000
  0
LINE
  8
Walls
100
AcDbLine
 10
4.4744900000000003E+000
 20
1.0693370000000000E+002
 30
0.0000000000000000E+000
 11
4.4744900000000003E+000
 21
1.1493370000000000E+002
 31
0.0000000000000000E+000
  0
LINE
  8
Walls
100
AcDbLine
 10
4.4744900000000003E+000
 20
1.1493370000000000E+002
 30
0.0000000000000000E+000
 11
-2.5510200000000000E-002
 21
1.1493370000000000E+002
 31
0.0000000000000000E+000
  0
LINE
  8
Walls
100
AcDbLine
 10
1.2597450000000001E+002
 20
1.6493369999999999E+002
 30
0.0000000000000000E+000
 11
5.6474499999999999E+001
 21
1.6493369999999999E+002
 31
0.0000000000000000E+000
  0
LINE
  8
Walls
100
AcDbLine
 10
5.6474499999999999E+001
 20
1.6493369999999999E+002
 30
0.0000000000000000E+000
 11
5.6474499999999999E+001
 21
1.6943369999999999E+002
 31
0.0000000000000000E+000
  0
LINE
  8
Walls
100
AcDbLine
 10
2.4474499999999999E+001
 20
1.6943369999999999E+002
 30
0.0000000000000000E+000
 11
2.4474499999999999E+001
 21
1.6493369999999999E+002
 31
0.0000000000000000E+000
  0
LINE
  8
Walls
100
AcDbLine
 10
4.4744900000000003E+000
 20
1.4693369999999999E+002
 30
0.0000000000000000E+000
 11
-2.5510000000000001E-002
 21
1.4693369999999999E+002
 31
0.0000000000000000E+000
  0
LINE
  8
Walls
100
AcDbLine
 10
2.4474499999999999E+001
 20
1.6943369999999999E+002
 30
0.0000000000000000E+000
 11
4.4744999999999999E+000
 21
1.6943369999999999E+002
 31
0.0000000000000000E+000
  0
LINE
  8
Walls
100
AcDbLine
 10
4.4744999999999999E+000
 20
1.6943369999999999E+002
 30
0.0000000000000000E+000
 11
4.4744999999999999E+000
 21
2.3543369999999999E+002
 31
0.0000000000000000E+000
  0
LINE
  8
Walls
100
AcDbLine
 10
4.4744900000000003E+000
 20
1.4693369999999999E+002
 30
0.0000000000000000E+000
 11
4.4744900000000003E+000
 21
1.6493369999999999E+002
 31
0.0000000000000000E+000
  0
LINE
  8
Walls
100
AcDbLine
 10
4.4744900000000003E+000
 20
1.6493369999999999E+002
 30
0.0000000000000000E+000
 11
2.4474499999999999E+001
 21
1.6493369999999999E+002
 31
0.0000000000000000E+000
  0
LINE
  8
Walls
100
AcDbLine
 10
4.4744999999999999E+000
 20
2.3543369999999999E+002
 30
0.0000000000000000E+000
 11
-1.3152549999999999E+002
 21
2.3543369999999999E+002
 31
0.0000000000000000E+000
  0
LINE
  8
Walls
100
AcDbLine
 10
-1.3152549999999999E+002
 20
2.3543369999999999E+002
 30
0.0000000000000000E+000
 11
-1.3152549999999999E+002
 21
4.1393369999999999E+002
 31
0.0000000000000000E+000
  0
LINE
  8
Walls
100
AcDbLine
 10
5.6474499999999999E+001
 20
1.6943369999999999E+002
 30
0.0000000000000000E+000
 11
1.2597450000000001E+002
 21
1.6943369999999999E+002
 31
0.0000000000000000E+000
  0
LINE
  8
Walls
100
AcDbLine
 10
1.2597450000000001E+002
 20
1.8393369999999999E+002
 30
0.0000000000000000E+000
 11
1.3047450000000001E+002
 21
1.8393369999999999E+002
 31
0.0000000000000000E+000
  0
LINE
  8
Walls
100
AcDbLine
 10
1.3047450000000001E+002
 20
1.6943369999999999E+002
 30
0.0000000000000000E+000
 11
2.5097450000000001E+002
 21
1.6943369999999999E+002
 31
0.0000000000000000E+000
  0
LINE
  8
Walls
100
AcDbLine
 10
2.5097450000000001E+002
 20
1.6943369999999999E+002
 30
0.0000000000000000E+000
 11
2.5097450000000001E+002
 21
2.0243369999999999E+002
 31
0.0000000000000000E+000
  0
LINE
  8
Walls
100
AcDbLine
 10
2.5097450000000001E+002
 20
2.0243369999999999E+002
 30
0.0000000000000000E+000
 11
2.5547450000000001E+002
 21
2.0243369999999999E+002
 31
0.0000000000000000E+000
  0
LINE
  8
Walls
100
AcDbLine
 10
2.5547450000000001E+002
 20
2.0243369999999999E+002
 30
0.0000000000000000E+000
 11
2.5547450000000001E+002
 21
1.6493369999999999E+002
 31
0.0000000000000000E+000
  0
LINE
  8
Walls
100
AcDbLine
 10
2.5547450000000001E+002
 20
1.6493369999999999E+002
 30
0.0000000000000000E+000
 11
1.3047450000000001E+002
 21
1.6493369999999999E+002
 31
0.0000000000000000E+000
  0
LINE
  8
Walls
100
AcDbLine
 10
2.5097450000000001E+002
 20
2.3593369999999999E+002
 30
0.0000000000000000E+000
 11
2.5097450000000001E+002
 21
2.6593369999999999E+002
 31
0.0000000000000000E+000
  0
LINE
  8
Walls
100
AcDbLine
 10
2.5097450000000001E+002
 20
2.6593369999999999E+002
 30
0.0000000000000000E+000
 11
1.3047450000000001E+002
 21
2.6593369999999999E+002
 31
0.0000000000000000E+000
  0
LINE
  8
Walls
100
AcDbLine
 10
2.5097450000000001E+002
 20
2.3593369999999999E+002
 30
0.0000000000000000E+000
 11
2.5547450000000001E+002
 21
2.3593369999999999E+002
 31
0.0000000000000000E+000
  0
LINE
  8
Walls
100
AcDbLine
 10
2.5547450000000001E+002
 20
2.3593369999999999E+002
 30
0.0000000000000000E+000
 11
2.5547450000000001E+002
 21
2.6593369999999999E+002
 31
0.0000000000000000E+000
  0
LINE
  8
Walls
100
AcDbLine
 10
1.3047450000000001E+002
 20
2.6593369999999999E+002
 30
0.0000000000000000E+000
 11
1.3047450000000001E+002
 21
2.4043369999999999E+002
 31
0.0000000000000000E+000
  0
LINE
  8
Walls
100
AcDbLine
 10
1.3047450000000001E+002
 20
2.4043369999999999E+002
 30
0.0000000000000000E+000
 11
1.2597450000000001E+002
 21
2.4043369999999999E+002
 31
0.0000000000000000E+000
  0
LINE
  8
Walls
100
AcDbLine
 10
1.2597450000000001E+002
 20
2.4043369999999999E+002
 30
0.0000000000000000E+000
 11
1.2597450000000001E+002
 21
3.0943369999999999E+002
 31
0.0000000000000000E+000
  0
LINE
  8
Walls
100
AcDbLine
 10
1.2597450000000001E+002
 20
1.8393369999999999E+002
 30
0.0000000000000000E+000
 11
1.2597450000000001E+002
 21
1.6943369999999999E+002
 31
0.0000000000000000E+000
  0
LINE
  8
Walls
100
AcDbLine
 10
1.2597450000000001E+002
 20
1.6493369999999999E+002
 30
0.0000000000000000E+000
 11
1.2597450000000001E+002
 21
1.7183669999999999E+001
 31
0.0000000000000000E+000
  0
LINE
  8
Walls
100
AcDbLine
 10
1.2597450000000001E+002
 20
3.0943369999999999E+002
 30
0.0000000000000000E+000
 11
9.0474500000000006E+001
 21
3.0943369999999999E+002
 31
0.0000000000000000E+000
  0
LINE
  8
Walls
100
AcDbLine
 10
9.0474500000000006E+001
 20
3.0943369999999999E+002
 30
0.0000000000000000E+000
 11
9.0474500000000006E+001
 21
3.2143369999999999E+002
 31
0.0000000000000000E+000
  0
LINE
  8
Walls
100
AcDbLine
 10
9.0474500000000006E+001
 20
3.7993369999999999E+002
 30
0.0000000000000000E+000
 11
9.0474500000000006E+001
 21
4.1393369999999999E+002
 31
0.0000000000000000E+000
  0
LINE
  8
Walls
100
AcDbLine
 10
1.3047450000000001E+002
 20
1.8393369999999999E+002
 30
0.0000000000000000E+000
 11
1.3047450000000001E+002
 21
1.6943369999999999E+002
 31
0.0000000000000000E+000
  0
LINE
  8
Walls
100
AcDbLine
 10
9.0474500000000006E+001
 20
3.2143369999999999E+002
 30
0.0000000000000000E+000
 11
9.4974500000000006E+001
 21
3.2143369999999999E+002
 31
0.0000000000000000E+000
  0
LINE
  8
Walls
100
AcDbLine
 10
9.0474500000000006E+001
 20
3.7993369999999999E+002
 30
0.0000000000000000E+000
 11
9.4974500000000006E+001
 21
3.7993369999999999E+002
 31
0.0000000000000000E+000
  0
LINE
  8
Walls
100
AcDbLine
 10
9.4974500000000006E+001
 20
3.2143369999999999E+002
 30
0.0000000000000000E+000
 11
9.4974500000000006E+001
 21
3.1393369999999999E+002
 31
0.0000000000000000E+000
  0
LINE
  8
Walls
100
AcDbLine
 10
9.4974500000000006E+001
 20
3.1393369999999999E+002
 30
0.0000000000000000E+000
 11
1.2597450000000001E+002
 21
3.1393369999999999E+002
 31
0.0000000000000000E+000
  0
LINE
  8
Walls
100
AcDbLine
 10
9.0474500000000006E+001
 20
4.1393369999999999E+002
 30
0.0000000000000000E+000
 11
8.2474500000000006E+001
 21
4.1393369999999999E+002
 31
0.0000000000000000E+000
  0
LINE
  8
Walls
100
AcDbLine
 10
1.0474500000000001E+001
 20
4.1393369999999999E+002
 30
0.0000000000000000E+000
 11
-1.3152549999999999E+002
 21
4.1393369999999999E+002
 31
0.0000000000000000E+000
  0
LINE
  8
Walls
100
AcDbLine
 10
9.4974500000000006E+001
 20
3.7993369999999999E+002
 30
0.0000000000000000E+000
 11
9.4974500000000006E+001
 21
4.1393369999999999E+002
 31
0.0000000000000000E+000
  0
LINE
  8
Walls
100
AcDbLine
 10
9.4974500000000006E+001
 20
4.1393369999999999E+002
 30
0.0000000000000000E+000
 11
1.2597450000000001E+002
 21
4.1393369999999999E+002
 31
0.0000000000000000E+000
  0
LINE
  8
Walls
100
AcDbLine
 10
1.2597450000000001E+002
 20
4.1393369999999999E+002
 30
0.0000000000000000E+000
 11
1.2597450000000001E+002
 21
3.1393369999999999E+002
 31
0.0000000000000000E+000
  0
LINE
  8
Walls
100
AcDbLine
 10
2.5547450000000001E+002
 20
2.6593369999999999E+002
 30
0.0000000000000000E+000
 11
3.5947449999999998E+002
 21
2.6593369999999999E+002
 31
0.0000000000000000E+000
  0
LINE
  8
Walls
100
AcDbLine
 10
4.9497449999999998E+002
 20
2.6593369999999999E+002
 30
0.0000000000000000E+000
 11
3.6397449999999998E+002
 21
2.6593369999999999E+002
 31
0.0000000000000000E+000
  0
LINE
  8
Walls
100
AcDbLine
 10
4.9947449999999998E+002
 20
2.6593369999999999E+002
 30
0.0000000000000000E+000
 11
6.3197450000000003E+002
 21
2.6593369999999999E+002
 31
0.0000000000000000E+000
  0
LINE
  8
Walls
100
AcDbLine
 10
1.3047450000000001E+002
 20
1.6493369999999999E+002
 30
0.0000000000000000E+000
 11
1.3047450000000001E+002
 21
1.0433699999999988E+001
 31
0.0000000000000000E+000
  0
LINE
  8
Walls
100
AcDbLine
 10
3.2047450000000003E+002
 20
1.0433699999999966E+001
 30
0.0000000000000000E+000
 11
3.1497450000000003E+002
 21
1.0433699999999966E+001
 31
0.0000000000000000E+000
  0
LINE
  8
Walls
100
AcDbLine
 10
3.1497450000000003E+002
 20
1.0433699999999966E+001
 30
0.0000000000000000E+000
 11
3.1497450000000003E+002
 21
3.6933699999999966E+001
 31
0.0000000000000000E+000
  0
LINE
  8
Walls
100
AcDbLine
 10
2.5147450000000001E+002
 20
3.6933699999999973E+001
 30
0.0000000000000000E+000
 11
2.5147450000000001E+002
 21
1.0433699999999973E+001
 31
0.0000000000000000E+000
  0
LINE
  8
Walls
100
AcDbLine
 10
2.5147450000000001E+002
 20
1.0433699999999973E+001
 30
0.0000000000000000E+000
 11
1.3047450000000001E+002
 21
1.0433699999999988E+001
 31
0.0000000000000000E+000
  0
LINE
  8
Walls
100
AcDbLine
 10
3.1497450000000003E+002
 20
3.6933699999999966E+001
 30
0.0000000000000000E+000
 11
2.5147450000000001E+002
 21
3.6933699999999973E+001
 31
0.0000000000000000E+000
  0
LINE
  8
Walls
100
AcDbLine
 10
3.5947449999999998E+002
 20
1.4643369999999999E+002
 30
0.0000000000000000E+000
 11
3.9697449999999998E+002
 21
1.4643369999999999E+002
 31
0.0000000000000000E+000
  0
LINE
  8
Walls
100
AcDbLine
 10
3.9697449999999998E+002
 20
1.4643369999999999E+002
 30
0.0000000000000000E+000
 11
3.9697449999999998E+002
 21
1.5093369999999999E+002
 31
0.0000000000000000E+000
  0
LINE
  8
Walls
100
AcDbLine
 10
3.9697449999999998E+002
 20
1.5093369999999999E+002
 30
0.0000000000000000E+000
 11
3.9347449999999998E+002
 21
1.5093369999999999E+002
 31
0.0000000000000000E+000
  0
LINE
  8
Walls
100
AcDbLine
 10
3.9347449999999998E+002
 20
1.5093369999999999E+002
 30
0.0000000000000000E+000
 11
3.9347449999999998E+002
 21
1.6693369999999999E+002
 31
0.0000000000000000E+000
  0
LINE
  8
Walls
100
AcDbLine
 10
3.9347449999999998E+002
 20
1.6693369999999999E+002
 30
0.0000000000000000E+000
 11
3.6397449999999998E+002
 21
1.6693369999999999E+002
 31
0.0000000000000000E+000
  0
LINE
  8
Walls
100
AcDbLine
 10
4.2697449999999998E+002
 20
1.4643369999999999E+002
 30
0.0000000000000000E+000
 11
5.0197449999999998E+002
 21
1.4643369999999999E+002
 31
0.0000000000000000E+000
  0
LINE
  8
Walls
100
AcDbLine
 10
5.0197449999999998E+002
 20
1.4643369999999999E+002
 30
0.0000000000000000E+000
 11
5.0197449999999998E+002
 21
1.5093369999999999E+002
 31
0.0000000000000000E+000
  0
LINE
  8
Walls
100
AcDbLine
 10
5.0197449999999998E+002
 20
1.5093369999999999E+002
 30
0.0000000000000000E+000
 11
4.9947449999999998E+002
 21
1.5093369999999999E+002
 31
0.0000000000000000E+000
  0
LINE
  8
Walls
100
AcDbLine
 10
4.2697449999999998E+002
 20
1.4643369999999999E+002
 30
0.0000000000000000E+000
 11
4.2697449999999998E+002
 21
1.5093369999999999E+002
 31
0.0000000000000000E+000
  0
LINE
  8
Walls
100
AcDbLine
 10
4.9497449999999998E+002
 20
1.5093369999999999E+002
 30
0.0000000000000000E+000
 11
4.2697449999999998E+002
 21
1.5093369999999999E+002
 31
0.0000000000000000E+000
  0
LINE
  8
Walls
100
AcDbLine
 10
3.6397449999999998E+002
 20
1.6693369999999999E+002
 30
0.0000000000000000E+000
 11
3.6397449999999998E+002
 21
2.6593369999999999E+002
 31
0.0000000000000000E+000
  0
LINE
  8
Walls
100
AcDbLine
 10
3.5947449999999998E+002
 20
2.6593369999999999E+002
 30
0.0000000000000000E+000
 11
3.5947449999999998E+002
 21
1.4643369999999999E+002
 31
0.0000000000000000E+000
  0
LINE
  8
Walls
100
AcDbLine
 10
4.9497449999999998E+002
 20
2.6593369999999999E+002
 30
0.0000000000000000E+000
 11
4.9497449999999998E+002
 21
1.5093369999999999E+002
 31
0.0000000000000000E+000
  0
LINE
  8
Walls
100
AcDbLine
 10
4.9947449999999998E+002
 20
1.5093369999999999E+002
 30
0.0000000000000000E+000
 11
4.9947449999999998E+002
 21
2.6593369999999999E+002
 31
0.0000000000000000E+000
  0
LINE
  8
Walls
100
AcDbLine
 10
4.2097450000000003E+002
 20
1.1043370000000003E+002
 30
0.0000000000000000E+000
 11
3.5947450000000003E+002
 21
1.1043370000000004E+002
 31
0.0000000000000000E+000
  0
LINE
  8
Walls
100
AcDbLine
 10
3.5947450000000003E+002
 20
1.1043370000000004E+002
 30
0.0000000000000000E+000
 11
3.5947450000000003E+002
 21
1.0933700000000044E+001
 31
0.0000000000000000E+000
  0
LINE
  8
Walls
100
AcDbLine
 10
3.5947450000000003E+002
 20
1.0933700000000044E+001
 30
0.0000000000000000E+000
 11
3.5647450000000003E+002
 21
1.0933700000000044E+001
 31
0.0000000000000000E+000
  0
LINE
  8
Walls
100
AcDbLine
 10
4.2097450000000003E+002
 20
1.1043370000000003E+002
 30
0.0000000000000000E+000
 11
4.2097450000000003E+002
 21
1.0593370000000003E+002
 31
0.0000000000000000E+000
  0
LINE
  8
Walls
100
AcDbLine
 10
4.2097450000000003E+002
 20
1.0593370000000003E+002
 30
0.0000000000000000E+000
 11
3.6397450000000003E+002
 21
1.0593370000000003E+002
 31
0.0000000000000000E+000
  0
LINE
  8
Walls
100
AcDbLine
 10
4.4697450000000003E+002
 20
1.0593370000000003E+002
 30
0.0000000000000000E+000
 11
4.7297450000000003E+002
 21
1.0593370000000003E+002
 31
0.0000000000000000E+000
  0
LINE
  8
Walls
100
AcDbLine
 10
4.7297450000000003E+002
 20
1.0593370000000003E+002
 30
0.0000000000000000E+000
 11
4.7297450000000003E+002
 21
4.6433700000000030E+001
 31
0.0000000000000000E+000
  0
LINE
  8
Walls
100
AcDbLine
 10
3.6397450000000003E+002
 20
1.0593370000000003E+002
 30
0.0000000000000000E+000
 11
3.6397450000000003E+002
 21
4.6433700000000030E+001
 31
0.0000000000000000E+000
  0
LINE
  8
Walls
100
AcDbLine
 10
3.6397450000000003E+002
 20
4.6433700000000030E+001
 30
0.0000000000000000E+000
 11
4.7297450000000003E+002
 21
4.6433700000000030E+001
 31
0.0000000000000000E+000
  0
LINE
  8
Walls
100
AcDbLine
 10
4.4697450000000003E+002
 20
1.0593370000000003E+002
 30
0.0000000000000000E+000
 11
4.4697450000000003E+002
 21
1.1043370000000003E+002
 31
0.0000000000000000E+000
  0
LINE
  8
Walls
100
AcDbLine
 10
4.4697450000000003E+002
 20
1.1043370000000003E+002
 30
0.0000000000000000E+000
 11
4.8147450000000003E+002
 21
1.1043370000000003E+002
 31
0.0000000000000000E+000
  0
LINE
  8
Walls
100
AcDbLine
 10
4.8147450000000003E+002
 20
1.1043370000000003E+002
 30
0.0000000000000000E+000
 11
4.8147450000000003E+002
 21
1.0593370000000003E+002
 31
0.0000000000000000E+000
  0
LINE
  8
Walls
100
AcDbLine
 10
4.8147450000000003E+002
 20
1.0593370000000003E+002
 30
0.0000000000000000E+000
 11
4.7747450000000003E+002
 21
1.0593370000000003E+002
 31
0.0000000000000000E+000
  0
LINE
  8
Walls
100
AcDbLine
 10
6.3197450000000003E+002
 20
-1.9566299999999988E+001
 30
0.0000000000000000E+000
 11
4.7747450000000003E+002
 21
-1.9566299999999970E+001
 31
0.0000000000000000E+000
  0
LINE
  8
Walls
100
AcDbLine
 10
4.7747450000000003E+002
 20
-1.9566299999999970E+001
 30
0.0000000000000000E+000
 11
4.7747450000000003E+002
 21
-1.6066299999999970E+001
 31
0.0000000000000000E+000
  0
LINE
  8
Walls
100
AcDbLine
 10
4.7747450000000003E+002
 20
-1.6066299999999970E+001
 30
0.0000000000000000E+000
 11
4.7297450000000003E+002
 21
-1.6066299999999970E+001
 31
0.0000000000000000E+000
  0
LINE
  8
Walls
100
AcDbLine
 10
4.7297450000000003E+002
 20
-1.6066299999999970E+001
 30
0.0000000000000000E+000
 11
4.7297450000000003E+002
 21
-1.9566299999999970E+001
 31
0.0000000000000000E+000
  0
LINE
  8
Walls
100
AcDbLine
 10
4.7297450000000003E+002
 20
9.9337000000000302E+000
 30
0.0000000000000000E+000
 11
4.7297450000000003E+002
 21
3.7933700000000030E+001
 31
0.0000000000000000E+000
  0
LINE
  8
Walls
100
AcDbLine
 10
4.7297450000000003E+002
 20
3.7933700000000030E+001
 30
0.0000000000000000E+000
 11
3.6397450000000003E+002
 21
3.7933700000000044E+001
 31
0.0000000000000000E+000
  0
LINE
  8
Walls
100
AcDbLine
 10
4.7297450000000003E+002
 20
-1.9566299999999970E+001
 30
0.0000000000000000E+000
 11
3.6397450000000003E+002
 21
-1.9566299999999956E+001
 31
0.0000000000000000E+000
  0
LINE
  8
Walls
100
AcDbLine
 10
3.6397450000000003E+002
 20
-1.9566299999999956E+001
 30
0.0000000000000000E+000
 11
3.6397450000000003E+002
 21
3.7933700000000044E+001
 31
0.0000000000000000E+000
  0
LINE
  8
Walls
100
AcDbLine
 10
4.7297450000000003E+002
 20
9.9337000000000302E+000
 30
0.0000000000000000E+000
 11
4.7747450000000003E+002
 21
9.9337000000000302E+000
 31
0.0000000000000000E+000
  0
LINE
  8
Walls
100
AcDbLine
 10
4.7747450000000003E+002
 20
9.9337000000000302E+000
 30
0.0000000000000000E+000
 11
4.7747450000000003E+002
 21
1.0593370000000003E+002
 31
0.0000000000000000E+000
  0
LINE
  8
Walls
100
AcDbLine
 10
5.1147450000000003E+002
 20
1.0593370000000003E+002
 30
0.0000000000000000E+000
 11
5.6097450000000003E+002
 21
1.0593370000000003E+002
 31
0.0000000000000000E+000
  0
LINE
  8
Walls
100
AcDbLine
 10
5.1147450000000003E+002
 20
1.0593370000000003E+002
 30
0.0000000000000000E+000
 11
5.1147450000000003E+002
 21
1.1043370000000003E+002
 31
0.0000000000000000E+000
  0
LINE
  8
Walls
100
AcDbLine
 10
5.6097450000000003E+002
 20
1.0593370000000003E+002
 30
0.0000000000000000E+000
 11
5.6097450000000003E+002
 21
1.3393370000000004E+002
 31
0.0000000000000000E+000
  0
LINE
  8
Walls
100
AcDbLine
 10
6.3197450000000003E+002
 20
-1.9566299999999988E+001
 30
0.0000000000000000E+000
 11
6.3197450000000003E+002
 21
1.3393370000000002E+002
 31
0.0000000000000000E+000
  0
LINE
  8
Walls
100
AcDbLine
 10
6.3197450000000003E+002
 20
1.3393370000000002E+002
 30
0.0000000000000000E+000
 11
5.6097450000000003E+002
 21
1.3393370000000004E+002
 31
0.0000000000000000E+000
  0
LINE
  8
Walls
100
AcDbLine
 10
6.3197450000000003E+002
 20
1.3843370000000002E+002
 30
0.0000000000000000E+000
 11
6.3197450000000003E+002
 21
2.6593369999999999E+002
 31
0.0000000000000000E+000
  0
LINE
  8
Walls
100
AcDbLine
 10
5.1147450000000003E+002
 20
1.1043370000000003E+002
 30
0.0000000000000000E+000
 11
5.6047450000000003E+002
 21
1.1043370000000003E+002
 31
0.0000000000000000E+000
  0
LINE
  8
Walls
100
AcDbLine
 10
5.6047450000000003E+002
 20
1.1043370000000003E+002
 30
0.0000000000000000E+000
 11
5.6047450000000003E+002
 21
1.4643370000000004E+002
 31
0.0000000000000000E+000
  0
LINE
  8
Walls
100
AcDbLine
 10
5.6047450000000003E+002
 20
1.4643370000000004E+002
 30
0.0000000000000000E+000
 11
5.3197450000000003E+002
 21
1.4643370000000004E+002
 31
0.0000000000000000E+000
  0
LINE
  8
Walls
100
AcDbLine
 10
5.3197450000000003E+002
 20
1.4643370000000004E+002
 30
0.0000000000000000E+000
 11
5.3197450000000003E+002
 21
1.5093370000000004E+002
 31
0.0000000000000000E+000
  0
LINE
  8
Walls
100
AcDbLine
 10
5.3197450000000003E+002
 20
1.5093370000000004E+002
 30
0.0000000000000000E+000
 11
5.5647450000000003E+002
 21
1.5093370000000004E+002
 31
0.0000000000000000E+000
  0
LINE
  8
Walls
100
AcDbLine
 10
5.5647450000000003E+002
 20
1.5093370000000004E+002
 30
0.0000000000000000E+000
 11
5.5647450000000003E+002
 21
1.6393370000000004E+002
 31
0.0000000000000000E+000
  0
LINE
  8
Walls
100
AcDbLine
 10
5.5647450000000003E+002
 20
1.6393370000000004E+002
 30
0.0000000000000000E+000
 11
5.6097450000000003E+002
 21
1.6393370000000004E+002
 31
0.0000000000000000E+000
  0
LINE
  8
Walls
100
AcDbLine
 10
5.6097450000000003E+002
 20
1.6393370000000004E+002
 30
0.0000000000000000E+000
 11
5.6097450000000003E+002
 21
1.3843370000000004E+002
 31
0.0000000000000000E+000
  0
LINE
  8
Walls
100
AcDbLine
 10
5.6097450000000003E+002
 20
1.3843370000000004E+002
 30
0.0000000000000000E+000
 11
6.3197450000000003E+002
 21
1.3843370000000002E+002
 31
0.0000000000000000E+000
  0
LINE
  8
Walls
100
AcDbLine
 10
5.3397450000000003E+002
 20
1.4643370000000004E+002
 30
0.0000000000000000E+000
 11
5.3397450000000003E+002
 21
1.1043370000000004E+002
 31
0.0000000000000000E+000
  0
LINE
  8
Walls
100
AcDbLine
 10
3.9297450000000003E+002
 20
-1.9566299999999956E+001
 30
0.0000000000000000E+000
 11
3.9297450000000003E+002
 21
3.7933700000000044E+001
 31
0.0000000000000000E+000
  0
LINE
  8
Walls
100
AcDbLine
 10
4.3597450000000003E+002
 20
1.8933700000000034E+001
 30
0.0000000000000000E+000
 11
4.3597450000000003E+002
 21
3.7933700000000030E+001
 31
0.0000000000000000E+000
  0
LINE
  8
Walls
100
AcDbLine
 10
3.9897450000000003E+002
 20
1.8933700000000037E+001
 30
0.0000000000000000E+000
 11
3.9897450000000003E+002
 21
3.7933700000000030E+001
 31
0.0000000000000000E+000
  0
LINE
  8
Walls
100
AcDbLine
 10
4.3597450000000003E+002
 20
1.8933700000000034E+001
 30
0.0000000000000000E+000
 11
3.9897450000000003E+002
 21
1.8933700000000037E+001
 31
0.0000000000000000E+000
  0
LINE
  8
Walls
100
AcDbLine
 10
3.9297450000000003E+002
 20
1.0593370000000003E+002
 30
0.0000000000000000E+000
 11
3.9297450000000003E+002
 21
4.6433700000000030E+001
 31
0.0000000000000000E+000
  0
LINE
  8
Walls
100
AcDbLine
 10
3.9897450000000003E+002
 20
6.5433700000000016E+001
 30
0.0000000000000000E+000
 11
4.3597450000000003E+002
 21
6.5433700000000016E+001
 31
0.0000000000000000E+000
  0
LINE
  8
Walls
100
AcDbLine
 10
4.3597450000000003E+002
 20
6.5433700000000016E+001
 30
0.0000000000000000E+000
 11
4.3597450000000003E+002
 21
4.6433700000000030E+001
 31
0.0000000000000000E+000
  0
LINE
  8
Walls
100
AcDbLine
 10
3.9897450000000003E+002
 20
6.5433700000000016E+001
 30
0.0000000000000000E+000
 11
3.9897450000000003E+002
 21
4.6433700000000030E+001
 31
0.0000000000000000E+000
  0
LINE
  8
Walls
100
AcDbLine
 10
3.1497450000000003E+002
 20
4.4336999999999662E+000
 30
0.0000000000000000E+000
 11
3.5797450000000003E+002
 21
4.4336999999999662E+000
 31
0.0000000000000000E+000
  0
LINE
  8
Walls
100
AcDbLine
 10
3.5797450000000003E+002
 20
4.4336999999999662E+000
 30
0.0000000000000000E+000
 11
3.5797450000000003E+002
 21
-2.5566299999999956E+001
 31
0.0000000000000000E+000
  0
LINE
  8
Walls
100
AcDbLine
 10
-1.3752549999999999E+002
 20
4.1993369999999999E+002
 30
0.0000000000000000E+000
 11
-1.3752550000000002E+002
 21
2.1755403124328274E+002
 31
0.0000000000000000E+000
  0
LINE
  8
Walls
100
AcDbLine
 10
-1.3752549999999999E+002
 20
4.1993369999999999E+002
 30
0.0000000000000000E+000
 11
1.3197450000000001E+002
 21
4.1993369999999999E+002
 31
0.0000000000000000E+000
  0
LINE
  8
Walls
100
AcDbLine
 10
6.3797450000000003E+002
 20
-2.5566299999999988E+001
 30
0.0000000000000000E+000
 11
6.3797450000000003E+002
 21
2.7193369999999999E+002
 31
0.0000000000000000E+000
  0
LINE
  8
Walls
100
AcDbLine
 10
3.5797450000000003E+002
 20
-2.5566299999999956E+001
 30
0.0000000000000000E+000
 11
6.3797450000000003E+002
 21
-2.5566299999999956E+001
 31
0.0000000000000000E+000
  0
LINE
  8
Walls
100
AcDbLine
 10
3.1497450000000003E+002
 20
4.4336999999999662E+000
 30
0.0000000000000000E+000
 11
3.1497450000000003E+002
 21
4.3369999999996622E-001
 31
0.0000000000000000E+000
  0
LINE
  8
Walls
100
AcDbLine
 10
3.1497450000000003E+002
 20
4.3369999999996622E-001
 30
0.0000000000000000E+000
 11
2.5147450000000004E+002
 21
4.3369999999997400E-001
 31
0.0000000000000000E+000
  0
LINE
  8
Walls
100
AcDbLine
 10
2.5147450000000004E+002
 20
4.3369999999997400E-001
 30
0.0000000000000000E+000
 11
2.5147450000000004E+002
 21
4.4336999999999742E+000
 31
0.0000000000000000E+000
  0
LINE
  8
Walls
100
AcDbLine
 10
2.5147450000000004E+002
 20
4.4336999999999742E+000
 30
0.0000000000000000E+000
 11
7.8458601588209717E+001
 21
4.4336999999999955E+000
 31
0.0000000000000000E+000
  0
LINE
  8
Walls
100
AcDbLine
 10
1.3197450000000001E+002
 20
4.1993369999999999E+002
 30
0.0000000000000000E+000
 11
1.3197450000000001E+002
 21
2.7193370000000004E+002
 31
0.0000000000000000E+000
  0
LINE
  8
Walls
100
AcDbLine
 10
6.3797450000000003E+002
 20
2.7193369999999999E+002
 30
0.0000000000000000E+000
 11
1.3197449999999998E+002
 21
2.7193370000000004E+002
 31
0.0000000000000000E+000
  0
LINE
  8
Yard
100
AcDbLine
 10
3.5797450000000003E+002
 20
-4.5566300000000034E+001
 30
0.0000000000000000E+000
 11
1.2297450000000004E+002
 21
-4.5566300000000005E+001
 31
0.0000000000000000E+000
  0
LINE
  8
Yard
100
AcDbLine
 10
1.2297450000000004E+002
 20
-4.5566300000000005E+001
 30
0.0000000000000000E+000
 11
1.2297450000000002E+002
 21
-1.2356630000000001E+002
 31
0.0000000000000000E+000
  0
LINE
  8
Yard
100
AcDbLine
 10
1.2297450000000002E+002
 20
-1.2356630000000001E+002
 30
0.0000000000000000E+000
 11
1.6497450000000004E+002
 21
-1.2356630000000001E+002
 31
0.0000000000000000E+000
  0
LINE
  8
Yard
100
AcDbLine
 10
1.9197450000000004E+002
 20
-9.6566300000000012E+001
 30
0.0000000000000000E+000
 11
1.6497450000000004E+002
 21
-1.2356630000000001E+002
 31
0.0000000000000000E+000
  0
LINE
  8
Yard
100
AcDbLine
 10
6.2497450000000003E+002
 20
-7.2566299999999956E+001
 30
0.0000000000000000E+000
 11
4.4497450000000003E+002
 21
-7.2566299999999913E+001
 31
0.0000000000000000E+000
  0
LINE
  8
Yard
100
AcDbLine
 10
4.2097450000000003E+002
 20
-9.6566299999999913E+001
 30
0.0000000000000000E+000
 11
4.4497450000000003E+002
 21
-7.2566299999999913E+001
 31
0.0000000000000000E+000
  0
LINE
  8
Yard
100
AcDbLine
 10
4.2097450000000003E+002
 20
-9.6566299999999913E+001
 30
0.0000000000000000E+000
 11
1.9197450000000004E+002
 21
-9.6566300000000012E+001
 31
0.0000000000000000E+000
  0
LINE
  8
Yard
100
AcDbLine
 10
6.2497450000000003E+002
 20
-2.5566299999999956E+001
 30
0.0000000000000000E+000
 11
6.2497450000000003E+002
 21
-7.2566299999999956E+001
 31
0.0000000000000000E+000
  0
LINE
  8
Yard
100
AcDbLine
 10
3.5797450000000003E+002
 20
-2.5566299999999956E+001
 30
0.0000000000000000E+000
 11
3.5797450000000003E+002
 21
-4.5566300000000034E+001
 31
0.0000000000000000E+000
  0
CIRCLE
  8
Yard
100
AcDbCircle
 10
4.2497450000000003E+002
 20
-3.0566299999999956E+001
 30
0.0000000000000000E+000
 40
5.0000000000000000E+000
  0
ENDSEC
  0
EOF
