  0
SECTION
  2
HEADER
  9
$CLAYER
  8
Doors
  0
ENDSEC
  0
SECTION
  2
TABLES
  0
TABLE
  2
LAYER
  0
LAYER
  2
0
 62
256
  0
LAYER
  2
Doors
 62
3
  0
LAYER
  2
Text
 62
4
  0
LAYER
  2
Walls
 62
1
  0
LAYER
  2
Windows
 62
74
  0
ENDTAB
  0
TABLE
  2
VPORT
  0
VPORT
  2
*ACTIVE
 10
-5.2999031124297574E+002
 20
-1.0326283253199996E+002
 40
4.7683771953221282E+002
  0
ENDTAB
  0
ENDSEC
  0
SECTION
  2
ENTITIES
  0
LINE
  8
Doors
100
AcDbLine
 10
-4.9094871520995895E+001
 20
3.4265735626220561E+001
 30
0.0000000000000000E+000
 11
-4.9094871520996023E+001
 21
7.0265735626220561E+001
 31
0.0000000000000000E+000
  0
ARC
  8
Doors
100
AcDbCircle
 10
-4.9094871520995895E+001
 20
3.4265735626220561E+001
 30
0.0000000000000000E+000
 40
3.6000000000000000E+001
 50
9.0000000000000028E+001
 51
1.8000000000000060E+002
  0
LINE
  8
Doors
100
AcDbLine
 10
9.6405128479003693E+001
 20
1.7476573562621979E+002
 30
0.0000000000000000E+000
 11
9.6405128479003594E+001
 21
2.0476573562621979E+002
 31
0.0000000000000000E+000
  0
LINE
  8
Doors
100
AcDbLine
 10
7.5405128479003793E+001
 20
1.2726573562621965E+002
 30
0.0000000000000000E+000
 11
7.5405128479004105E+001
 21
9.7265735626219652E+001
 31
0.0000000000000000E+000
  0
ARC
  8
Doors
100
AcDbCircle
 10
7.5405128479003793E+001
 20
1.2726573562621965E+002
 30
0.0000000000000000E+000
 40
3.0000000000000000E+001
 50
2.7000000000000080E+002
 51
3.5622212432391307E-013
  0
ARC
  8
Doors
100
AcDbCircle
 10
9.6405128479003693E+001
 20
1.7476573562621979E+002
 30
0.0000000000000000E+000
 40
3.0000000000000000E+001
 50
3.5622212432391307E-013
 51
9.0000000000000000E+001
  0
LINE
  8
Doors
100
AcDbLine
 10
-8.0948715209956319E+000
 20
1.7476573562621906E+002
 30
0.0000000000000000E+000
 11
-8.0948715209957367E+000
 21
2.0476573562621906E+002
 31
0.0000000000000000E+000
  0
ARC
  8
Doors
100
AcDbCircle
 10
-8.0948715209956319E+000
 20
1.7476573562621906E+002
 30
0.0000000000000000E+000
 40
2.9999999999999986E+001
 50
3.5622212432391307E-013
 51
9.0000000000000000E+001
  0
LINE
  8
Doors
100
AcDbLine
 10
1.0405128479003814E+001
 20
1.2726573562621960E+002
 30
0.0000000000000000E+000
 11
1.0405128479004128E+001
 21
9.7265735626219595E+001
 31
0.0000000000000000E+000
  0
ARC
  8
Doors
100
AcDbCircle
 10
1.0405128479003814E+001
 20
1.2726573562621960E+002
 30
0.0000000000000000E+000
 40
2.9999999999999993E+001
 50
2.7000000000000080E+002
 51
0.0000000000000000E+000
  0
LINE
  8
Doors
100
AcDbLine
 10
-4.6094871520995738E+001
 20
2.5265735626220383E+001
 30
0.0000000000000000E+000
 11
-5.9287129557069640E+001
 21
6.4252386075734584E+000
 31
0.0000000000000000E+000
  0
ARC
  8
Doors
100
AcDbCircle
 10
-4.6094871520995738E+001
 20
2.5265735626220383E+001
 30
0.0000000000000000E+000
 40
2.2999999999999680E+001
 50
2.3500000000000074E+002
 51
2.7000000000000023E+002
  0
LINE
  8
Doors
100
AcDbLine
 10
-3.6109487152099564E+002
 20
3.9265735626218785E+001
 30
0.0000000000000000E+000
 11
-3.6109487152099575E+002
 21
6.9265735626218785E+001
 31
0.0000000000000000E+000
  0
ARC
  8
Doors
100
AcDbCircle
 10
-3.6109487152099564E+002
 20
3.9265735626218785E+001
 30
0.0000000000000000E+000
 40
3.0000000000000000E+001
 50
9.0000000000000199E+001
 51
1.8000000000000122E+002
  0
LINE
  8
Doors
100
AcDbLine
 10
-3.2309487152099553E+002
 20
2.6376573562621712E+002
 30
0.0000000000000000E+000
 11
-3.2309487152099513E+002
 21
2.2776573562621712E+002
 31
0.0000000000000000E+000
  0
ARC
  8
Doors
100
AcDbCircle
 10
-3.2309487152099553E+002
 20
2.6376573562621712E+002
 30
0.0000000000000000E+000
 40
3.6000000000000000E+001
 50
2.7000000000000080E+002
 51
0.0000000000000000E+000
  0
LINE
  8
Doors
100
AcDbLine
 10
-6.1094871520996008E+001
 20
2.9576573562621843E+002
 30
0.0000000000000000E+000
 11
-6.1094871520996136E+001
 21
3.3176573562621843E+002
 31
0.0000000000000000E+000
  0
LINE
  8
Doors
100
AcDbLine
 10
-1.3309487152099601E+002
 20
2.9576573562621843E+002
 30
0.0000000000000000E+000
 11
-1.3309487152099612E+002
 21
3.3176573562621843E+002
 31
0.0000000000000000E+000
  0
ARC
  8
Doors
100
AcDbCircle
 10
-1.3309487152099601E+002
 20
2.9576573562621843E+002
 30
0.0000000000000000E+000
 40
3.6000000000000000E+001
 50
0.0000000000000000E+000
 51
8.9999999999999972E+001
  0
ARC
  8
Doors
100
AcDbCircle
 10
-6.1094871520996008E+001
 20
2.9576573562621843E+002
 30
0.0000000000000000E+000
 40
3.6000000000000000E+001
 50
9.0000000000000000E+001
 51
1.7999999999999960E+002
  0
LINE
  8
Doors
100
AcDbLine
 10
-3.5209487152099564E+002
 20
3.9265735626218785E+001
 30
0.0000000000000000E+000
 11
-3.3980889119787940E+002
 21
5.1551715949335069E+001
 31
0.0000000000000000E+000
  0
LINE
  8
Doors
100
AcDbLine
 10
-3.3980889119787940E+002
 20
5.1551715949335069E+001
 30
0.0000000000000000E+000
 11
-3.2752291087476300E+002
 21
3.9265735626218955E+001
 31
0.0000000000000000E+000
  0
LINE
  8
Doors
100
AcDbLine
 10
-2.9488085184411204E+002
 20
5.1551715949334898E+001
 30
0.0000000000000000E+000
 11
-2.8259487152099564E+002
 21
3.9265735626218785E+001
 31
0.0000000000000000E+000
  0
LINE
  8
Doors
100
AcDbLine
 10
-3.0716683216722828E+002
 20
3.9265735626218614E+001
 30
0.0000000000000000E+000
 11
-2.9488085184411204E+002
 21
5.1551715949334898E+001
 31
0.0000000000000000E+000
  0
LINE
  8
Doors
100
AcDbLine
 10
6.6405128479004233E+001
 20
3.7657356262207031E+000
 30
0.0000000000000000E+000
 11
3.6405128479004233E+001
 21
3.7657356262204935E+000
 31
0.0000000000000000E+000
  0
ARC
  8
Doors
100
AcDbCircle
 10
6.6405128479004233E+001
 20
3.7657356262207031E+000
 30
0.0000000000000000E+000
 40
3.0000000000000000E+001
 50
8.9999999999999972E+001
 51
1.8000000000000080E+002
  0
TEXT
  8
Text
100
AcDbText
  1
Kitchen
 10
-2.4838345336914063E+002
 20
2.3320710754394531E+002
 30
0.0000000000000000E+000
 40
1.2000000000000000E+001
  0
TEXT
  8
Text
100
AcDbText
  1
Bath
 10
-2.3648752212524414E+001
 20
8.1819473266601562E+001
 30
0.0000000000000000E+000
 40
1.2000000000000000E+001
  0
TEXT
  8
Text
100
AcDbText
  1
Master
 10
1.3573283386230469E+002
 20
4.9141075134277344E+001
 30
0.0000000000000000E+000
 40
1.2000000000000000E+001
  0
TEXT
  8
Text
100
AcDbText
  1
Bedroom 2
 10
1.3773344421386719E+002
 20
2.2453733825683594E+002
 30
0.0000000000000000E+000
 40
1.2000000000000000E+001
  0
TEXT
  8
Text
100
AcDbText
  1
Bedroom 3
 10
6.3603353500366211E+000
 20
2.2787185668945313E+002
 30
0.0000000000000000E+000
 40
1.2000000000000000E+001
  0
TEXT
  8
Text
100
AcDbText
  1
Bath
 10
1.3029021263122559E+001
 20
2.9133903503417969E+001
 30
0.0000000000000000E+000
 40
1.2000000000000000E+001
  0
TEXT
  8
Text
100
AcDbText
  1
Entry
 10
-7.9908644049365364E+001
 20
2.9133918762207031E+001
 30
0.0000000000000000E+000
 40
1.2000000000000000E+001
  0
TEXT
  8
Text
100
AcDbText
  1
Fire place
 10
-1.4665952626038825E+002
 20
3.9120865444618069E+001
 30
0.0000000000000000E+000
 40
1.2000000000000000E+001
  0
TEXT
  8
Text
100
AcDbText
  1
Laundry
 10
-3.3841070556640625E+002
 20
8.4598293304443359E+000
 30
0.0000000000000000E+000
 40
1.2000000000000000E+001
  0
TEXT
  8
Text
100
AcDbText
  1
Living room
 10
-2.0837135314941406E+002
 20
1.0049283599853516E+002
 30
0.0000000000000000E+000
 40
1.2000000000000000E+001
  0
TEXT
  8
Text
100
AcDbText
  1
Family room
 10
-4.4644342041015625E+002
 20
1.5851364135742188E+002
 30
0.0000000000000000E+000
 40
1.2000000000000000E+001
  0
TEXT
  8
Text
100
AcDbText
  1
Storage
 10
-4.6111453247070318E+002
 20
1.7994595350134489E+001
 30
0.0000000000000000E+000
 40
1.2000000000000000E+001
  0
TEXT
  8
Text
100
AcDbText
  1
Dining
 10
-1.1234226989746094E+002
 20
2.2387042236328125E+002
 30
0.0000000000000000E+000
 40
1.2000000000000000E+001
  0
LINE
  8
Walls
100
AcDbLine
 10
-9.1094871520996094E+001
 20
3.4265735626220390E+001
 30
0.0000000000000000E+000
 11
-9.1094871520996193E+001
 21
6.1265735626220390E+001
 31
0.0000000000000000E+000
  0
LINE
  8
Walls
100
AcDbLine
 10
-9.1094871520996193E+001
 20
6.1265735626220390E+001
 30
0.0000000000000000E+000
 11
-1.5509487152099621E+002
 21
6.1265735626219943E+001
 31
0.0000000000000000E+000
  0
LINE
  8
Walls
100
AcDbLine
 10
-1.5509487152099621E+002
 20
6.1265735626219943E+001
 30
0.0000000000000000E+000
 11
-1.5509487152099592E+002
 21
3.4265735626219943E+001
 31
0.0000000000000000E+000
  0
LINE
  8
Walls
100
AcDbLine
 10
-1.5509487152099592E+002
 20
3.4265735626219943E+001
 30
0.0000000000000000E+000
 11
-2.7809487152099592E+002
 21
3.4265735626219083E+001
 31
0.0000000000000000E+000
  0
LINE
  8
Walls
100
AcDbLine
 10
-2.7809487152099592E+002
 20
3.4265735626219083E+001
 30
0.0000000000000000E+000
 11
-2.7809487152099609E+002
 21
8.3265735626219083E+001
 31
0.0000000000000000E+000
  0
LINE
  8
Walls
100
AcDbLine
 10
-2.7809487152099626E+002
 20
1.4326573562621908E+002
 30
0.0000000000000000E+000
 11
-2.8259487152099626E+002
 21
1.4326573562621908E+002
 31
0.0000000000000000E+000
  0
LINE
  8
Walls
100
AcDbLine
 10
-2.7809487152099609E+002
 20
8.3265735626219083E+001
 30
0.0000000000000000E+000
 11
-2.8259487152099609E+002
 21
8.3265735626219083E+001
 31
0.0000000000000000E+000
  0
LINE
  8
Walls
100
AcDbLine
 10
-2.8259487152099609E+002
 20
8.3265735626219083E+001
 30
0.0000000000000000E+000
 11
-2.8259487152099513E+002
 21
-8.7342643737809169E+000
 31
0.0000000000000000E+000
  0
LINE
  8
Walls
100
AcDbLine
 10
-1.5509487152099590E+002
 20
2.8265735626219943E+001
 30
0.0000000000000000E+000
 11
-1.5509487152099587E+002
 21
2.4265735626219943E+001
 31
0.0000000000000000E+000
  0
LINE
  8
Walls
100
AcDbLine
 10
-1.5509487152099587E+002
 20
2.4265735626219943E+001
 30
0.0000000000000000E+000
 11
-9.1094871520995866E+001
 21
2.4265735626219943E+001
 31
0.0000000000000000E+000
  0
LINE
  8
Walls
100
AcDbLine
 10
-9.1094871520995866E+001
 20
2.4265735626219943E+001
 30
0.0000000000000000E+000
 11
-9.1094871520995881E+001
 21
2.8265735626219943E+001
 31
0.0000000000000000E+000
  0
LINE
  8
Walls
100
AcDbLine
 10
-1.5509487152099590E+002
 20
2.8265735626219943E+001
 30
0.0000000000000000E+000
 11
-2.7659487152099553E+002
 21
2.8265735626219090E+001
 31
0.0000000000000000E+000
  0
LINE
  8
Walls
100
AcDbLine
 10
-2.7659487152099553E+002
 20
2.8265735626219090E+001
 30
0.0000000000000000E+000
 11
-2.7659487152099507E+002
 21
-1.4734264373780874E+001
 31
0.0000000000000000E+000
  0
LINE
  8
Walls
100
AcDbLine
 10
-8.5094871520995881E+001
 20
2.8265735626220255E+001
 30
0.0000000000000000E+000
 11
-8.5094871520995895E+001
 21
3.4265735626220433E+001
 31
0.0000000000000000E+000
  0
LINE
  8
Walls
100
AcDbLine
 10
-9.1094871520995881E+001
 20
2.8265735626219943E+001
 30
0.0000000000000000E+000
 11
-8.5094871520995881E+001
 21
2.8265735626219943E+001
 31
0.0000000000000000E+000
  0
LINE
  8
Walls
100
AcDbLine
 10
-8.5094871520995895E+001
 20
3.4265735626220433E+001
 30
0.0000000000000000E+000
 11
-9.1094871520996094E+001
 21
3.4265735626220390E+001
 31
0.0000000000000000E+000
  0
LINE
  8
Walls
100
AcDbLine
 10
6.6405128479004247E+001
 20
-7.3426437377929688E-001
 30
0.0000000000000000E+000
 11
6.6405128479004233E+001
 21
3.7657356262207031E+000
 31
0.0000000000000000E+000
  0
LINE
  8
Walls
100
AcDbLine
 10
7.0905128479004134E+001
 20
3.3765735626220703E+001
 30
0.0000000000000000E+000
 11
7.0905128479003807E+001
 21
1.2726573562621960E+002
 31
0.0000000000000000E+000
  0
LINE
  8
Walls
100
AcDbLine
 10
7.0905128479004247E+001
 20
-7.3426437377929688E-001
 30
0.0000000000000000E+000
 11
7.0905128479004233E+001
 21
3.7657356262207031E+000
 31
0.0000000000000000E+000
  0
LINE
  8
Walls
100
AcDbLine
 10
7.0905128479004247E+001
 20
3.7657356262207031E+000
 30
0.0000000000000000E+000
 11
6.6405128479004233E+001
 21
3.7657356262207031E+000
 31
0.0000000000000000E+000
  0
LINE
  8
Walls
100
AcDbLine
 10
1.5190512847900368E+002
 20
1.7476573562622016E+002
 30
0.0000000000000000E+000
 11
1.2640512847900369E+002
 21
1.7476573562621999E+002
 31
0.0000000000000000E+000
  0
LINE
  8
Walls
100
AcDbLine
 10
1.5190512847900371E+002
 20
1.7026573562622016E+002
 30
0.0000000000000000E+000
 11
1.2640512847900371E+002
 21
1.7026573562621999E+002
 31
0.0000000000000000E+000
  0
LINE
  8
Walls
100
AcDbLine
 10
9.6405128479003693E+001
 20
1.7476573562621979E+002
 30
0.0000000000000000E+000
 11
9.6405128479003707E+001
 21
1.7026573562621974E+002
 31
0.0000000000000000E+000
  0
LINE
  8
Walls
100
AcDbLine
 10
1.2640512847900369E+002
 20
1.7476573562621996E+002
 30
0.0000000000000000E+000
 11
1.2640512847900371E+002
 21
1.7026573562621974E+002
 31
0.0000000000000000E+000
  0
LINE
  8
Walls
100
AcDbLine
 10
-4.0594871520996364E+001
 20
2.4776573562621883E+002
 30
0.0000000000000000E+000
 11
-4.0594871520995753E+001
 21
1.8876573562621883E+002
 31
0.0000000000000000E+000
  0
LINE
  8
Walls
100
AcDbLine
 10
-4.0594871520995753E+001
 20
1.8876573562621883E+002
 30
0.0000000000000000E+000
 11
-1.2594871520995751E+001
 21
1.8876573562621883E+002
 31
0.0000000000000000E+000
  0
LINE
  8
Walls
100
AcDbLine
 10
8.7405128479003196E+001
 20
2.8976573562621974E+002
 30
0.0000000000000000E+000
 11
8.7405128479003679E+001
 21
1.7476573562621974E+002
 31
0.0000000000000000E+000
  0
LINE
  8
Walls
100
AcDbLine
 10
9.1905128479003196E+001
 20
2.8976573562621974E+002
 30
0.0000000000000000E+000
 11
9.1905128479003679E+001
 21
1.7476573562621974E+002
 31
0.0000000000000000E+000
  0
LINE
  8
Walls
100
AcDbLine
 10
1.5790512847900365E+002
 20
1.5976573562622022E+002
 30
0.0000000000000000E+000
 11
1.5790512847900354E+002
 21
1.8776573562622022E+002
 31
0.0000000000000000E+000
  0
LINE
  8
Walls
100
AcDbLine
 10
2.2690512847900365E+002
 20
1.5976573562622070E+002
 30
0.0000000000000000E+000
 11
2.2690512847900320E+002
 21
2.8976573562622070E+002
 31
0.0000000000000000E+000
  0
LINE
  8
Walls
100
AcDbLine
 10
2.2690512847900365E+002
 20
1.5976573562622070E+002
 30
0.0000000000000000E+000
 11
1.5790512847900365E+002
 21
1.5976573562622022E+002
 31
0.0000000000000000E+000
  0
LINE
  8
Walls
100
AcDbLine
 10
2.2690512847900368E+002
 20
1.5526573562622070E+002
 30
0.0000000000000000E+000
 11
1.5790512847900368E+002
 21
1.5526573562622022E+002
 31
0.0000000000000000E+000
  0
LINE
  8
Walls
100
AcDbLine
 10
7.0905128479004247E+001
 20
-7.3426437377929688E-001
 30
0.0000000000000000E+000
 11
2.2690512847900425E+002
 21
-7.3426437377929688E-001
 31
0.0000000000000000E+000
  0
LINE
  8
Walls
100
AcDbLine
 10
6.6405128479003821E+001
 20
6.6265735626219595E+001
 30
0.0000000000000000E+000
 11
-4.1594871520996186E+001
 21
6.6265735626219595E+001
 31
0.0000000000000000E+000
  0
LINE
  8
Walls
100
AcDbLine
 10
1.5190512847900371E+002
 20
1.7026573562622016E+002
 30
0.0000000000000000E+000
 11
1.5190512847900411E+002
 21
1.3176573562622019E+002
 31
0.0000000000000000E+000
  0
LINE
  8
Walls
100
AcDbLine
 10
-1.2594871520996804E+001
 20
2.8976573562621905E+002
 30
0.0000000000000000E+000
 11
-1.2594871520996364E+001
 21
2.4776573562621906E+002
 31
0.0000000000000000E+000
  0
LINE
  8
Walls
100
AcDbLine
 10
8.7405128479003196E+001
 20
2.8976573562621974E+002
 30
0.0000000000000000E+000
 11
-1.2594871520996804E+001
 21
2.8976573562621905E+002
 31
0.0000000000000000E+000
  0
LINE
  8
Walls
100
AcDbLine
 10
1.5190512847900354E+002
 20
1.8776573562622016E+002
 30
0.0000000000000000E+000
 11
1.5190512847900368E+002
 21
1.7476573562622016E+002
 31
0.0000000000000000E+000
  0
LINE
  8
Walls
100
AcDbLine
 10
1.5790512847900354E+002
 20
1.8776573562622022E+002
 30
0.0000000000000000E+000
 11
1.5190512847900354E+002
 21
1.8776573562622016E+002
 31
0.0000000000000000E+000
  0
LINE
  8
Walls
100
AcDbLine
 10
1.5790512847900368E+002
 20
1.5526573562622022E+002
 30
0.0000000000000000E+000
 11
1.5790512847900396E+002
 21
1.2726573562622022E+002
 31
0.0000000000000000E+000
  0
LINE
  8
Walls
100
AcDbLine
 10
-2.3094871520995753E+001
 20
-7.3426437377929688E-001
 30
0.0000000000000000E+000
 11
-2.3094871520995959E+001
 21
6.0265735626220703E+001
 31
0.0000000000000000E+000
  0
LINE
  8
Walls
100
AcDbLine
 10
-2.7594871520995753E+001
 20
-7.3426437377929688E-001
 30
0.0000000000000000E+000
 11
-2.7594871520995959E+001
 21
6.0265735626220703E+001
 31
0.0000000000000000E+000
  0
LINE
  8
Walls
100
AcDbLine
 10
-4.0594871520995753E+001
 20
1.8426573562621883E+002
 30
0.0000000000000000E+000
 11
-4.0594871520995611E+001
 21
1.7026573562621883E+002
 31
0.0000000000000000E+000
  0
LINE
  8
Walls
100
AcDbLine
 10
-1.7094871520995703E+001
 20
1.8426573562621883E+002
 30
0.0000000000000000E+000
 11
-1.7094871520995547E+001
 21
1.7026573562621900E+002
 31
0.0000000000000000E+000
  0
LINE
  8
Walls
100
AcDbLine
 10
6.6405128479003807E+001
 20
1.2726573562621960E+002
 30
0.0000000000000000E+000
 11
4.0405128479003807E+001
 21
1.2726573562621960E+002
 31
0.0000000000000000E+000
  0
LINE
  8
Walls
100
AcDbLine
 10
1.0405128479003800E+001
 20
1.3176573562621923E+002
 30
0.0000000000000000E+000
 11
-4.6094871520996229E+001
 21
1.3176573562621883E+002
 31
0.0000000000000000E+000
  0
LINE
  8
Walls
100
AcDbLine
 10
7.5405128479003793E+001
 20
1.3176573562621965E+002
 30
0.0000000000000000E+000
 11
4.0405128479003793E+001
 21
1.3176573562621942E+002
 31
0.0000000000000000E+000
  0
LINE
  8
Walls
100
AcDbLine
 10
1.0405128479003814E+001
 20
1.2726573562621960E+002
 30
0.0000000000000000E+000
 11
1.0405128479003793E+001
 21
1.3176573562621951E+002
 31
0.0000000000000000E+000
  0
LINE
  8
Walls
100
AcDbLine
 10
7.0905128479004247E+001
 20
3.3765735626220703E+001
 30
0.0000000000000000E+000
 11
6.6405128479004134E+001
 21
3.3765735626220703E+001
 31
0.0000000000000000E+000
  0
LINE
  8
Walls
100
AcDbLine
 10
1.5190512847900411E+002
 20
1.3176573562622019E+002
 30
0.0000000000000000E+000
 11
1.0540512847900379E+002
 21
1.3176573562621988E+002
 31
0.0000000000000000E+000
  0
LINE
  8
Walls
100
AcDbLine
 10
7.5405128479003793E+001
 20
1.2726573562621965E+002
 30
0.0000000000000000E+000
 11
7.0905128479003793E+001
 21
1.2726573562621962E+002
 31
0.0000000000000000E+000
  0
LINE
  8
Walls
100
AcDbLine
 10
1.5790512847900396E+002
 20
1.2726573562622022E+002
 30
0.0000000000000000E+000
 11
1.0540512847900379E+002
 21
1.2726573562621985E+002
 31
0.0000000000000000E+000
  0
LINE
  8
Walls
100
AcDbLine
 10
6.6405128479004020E+001
 20
6.6265735626219595E+001
 30
0.0000000000000000E+000
 11
6.6405128479003807E+001
 21
1.2726573562621960E+002
 31
0.0000000000000000E+000
  0
LINE
  8
Walls
100
AcDbLine
 10
-4.5094871520995554E+001
 20
1.7026573562621880E+002
 30
0.0000000000000000E+000
 11
-4.5094871520995973E+001
 21
2.8976573562621883E+002
 31
0.0000000000000000E+000
  0
LINE
  8
Walls
100
AcDbLine
 10
-1.2594871520995751E+001
 20
1.8876573562621883E+002
 30
0.0000000000000000E+000
 11
-1.2594871520995604E+001
 21
1.7476573562621883E+002
 31
0.0000000000000000E+000
  0
LINE
  8
Walls
100
AcDbLine
 10
-1.2594871520996364E+001
 20
2.4776573562621906E+002
 30
0.0000000000000000E+000
 11
-4.0594871520996364E+001
 21
2.4776573562621883E+002
 31
0.0000000000000000E+000
  0
LINE
  8
Walls
100
AcDbLine
 10
2.2690512847900320E+002
 20
2.8976573562622070E+002
 30
0.0000000000000000E+000
 11
9.1905128479003196E+001
 21
2.8976573562621974E+002
 31
0.0000000000000000E+000
  0
LINE
  8
Walls
100
AcDbLine
 10
2.2690512847900425E+002
 20
-7.3426437377929688E-001
 30
0.0000000000000000E+000
 11
2.2690512847900368E+002
 21
1.5526573562622070E+002
 31
0.0000000000000000E+000
  0
LINE
  8
Walls
100
AcDbLine
 10
-2.7594871520995955E+001
 20
6.0265735626220703E+001
 30
0.0000000000000000E+000
 11
-4.1594871520995753E+001
 21
6.0265735626220703E+001
 31
0.0000000000000000E+000
  0
LINE
  8
Walls
100
AcDbLine
 10
6.6405128479004247E+001
 20
6.0265735626220703E+001
 30
0.0000000000000000E+000
 11
-2.3094871520995955E+001
 21
6.0265735626220703E+001
 31
0.0000000000000000E+000
  0
LINE
  8
Walls
100
AcDbLine
 10
-2.7594871520995753E+001
 20
-7.3426437377929688E-001
 30
0.0000000000000000E+000
 11
-4.1594871520995753E+001
 21
-7.3426437377929688E-001
 31
0.0000000000000000E+000
  0
LINE
  8
Walls
100
AcDbLine
 10
6.6405128479004247E+001
 20
-7.3426437377929688E-001
 30
0.0000000000000000E+000
 11
-2.3094871520995753E+001
 21
-7.3426437377929688E-001
 31
0.0000000000000000E+000
  0
LINE
  8
Walls
100
AcDbLine
 10
2.3290512847900425E+002
 20
-6.7342643737800607E+000
 30
0.0000000000000000E+000
 11
2.3290512847900317E+002
 21
2.9576573562622070E+002
 31
0.0000000000000000E+000
  0
LINE
  8
Walls
100
AcDbLine
 10
-4.0594871520995753E+001
 20
1.8426573562621883E+002
 30
0.0000000000000000E+000
 11
-1.7094871520995703E+001
 21
1.8426573562621883E+002
 31
0.0000000000000000E+000
  0
LINE
  8
Walls
100
AcDbLine
 10
1.0405128479003810E+001
 20
1.2726573562621960E+002
 30
0.0000000000000000E+000
 11
-4.1594871520996193E+001
 21
1.2726573562621960E+002
 31
0.0000000000000000E+000
  0
LINE
  8
Walls
100
AcDbLine
 10
4.0405128479003807E+001
 20
1.2726573562621960E+002
 30
0.0000000000000000E+000
 11
4.0405128479003793E+001
 21
1.3176573562621951E+002
 31
0.0000000000000000E+000
  0
LINE
  8
Walls
100
AcDbLine
 10
6.6405128479004134E+001
 20
3.3765735626220703E+001
 30
0.0000000000000000E+000
 11
6.6405128479004034E+001
 21
6.0265735626220703E+001
 31
0.0000000000000000E+000
  0
LINE
  8
Walls
100
AcDbLine
 10
7.5405128479003793E+001
 20
1.2726573562621968E+002
 30
0.0000000000000000E+000
 11
7.5405128479003778E+001
 21
1.3176573562621960E+002
 31
0.0000000000000000E+000
  0
LINE
  8
Walls
100
AcDbLine
 10
1.0540512847900379E+002
 20
1.2726573562621985E+002
 30
0.0000000000000000E+000
 11
1.0540512847900378E+002
 21
1.3176573562621960E+002
 31
0.0000000000000000E+000
  0
LINE
  8
Walls
100
AcDbLine
 10
1.3090512847900371E+002
 20
1.7026573562621974E+002
 30
0.0000000000000000E+000
 11
1.3090512847900411E+002
 21
1.3176573562622005E+002
 31
0.0000000000000000E+000
  0
LINE
  8
Walls
100
AcDbLine
 10
9.6405128479003693E+001
 20
1.7476573562621977E+002
 30
0.0000000000000000E+000
 11
9.1905128479003679E+001
 21
1.7476573562621974E+002
 31
0.0000000000000000E+000
  0
LINE
  8
Walls
100
AcDbLine
 10
-4.1594871520995987E+001
 20
6.6265735626219595E+001
 30
0.0000000000000000E+000
 11
-4.1594871520996193E+001
 21
1.2726573562621960E+002
 31
0.0000000000000000E+000
  0
LINE
  8
Walls
100
AcDbLine
 10
-2.8409487152099581E+002
 20
2.9576573562621712E+002
 30
0.0000000000000000E+000
 11
-2.8409487152099553E+002
 21
2.6976573562621712E+002
 31
0.0000000000000000E+000
  0
LINE
  8
Walls
100
AcDbLine
 10
-1.5359487152099530E+002
 20
2.2476573562621803E+002
 30
0.0000000000000000E+000
 11
-1.5359487152099496E+002
 21
1.9326573562621806E+002
 31
0.0000000000000000E+000
  0
LINE
  8
Walls
100
AcDbLine
 10
-1.4909487152099530E+002
 20
2.2476573562621809E+002
 30
0.0000000000000000E+000
 11
-1.5359487152099530E+002
 21
2.2476573562621803E+002
 31
0.0000000000000000E+000
  0
LINE
  8
Walls
100
AcDbLine
 10
-1.5359487152099567E+002
 20
2.5976573562621803E+002
 30
0.0000000000000000E+000
 11
-1.5359487152099575E+002
 21
2.8976573562621803E+002
 31
0.0000000000000000E+000
  0
LINE
  8
Walls
100
AcDbLine
 10
-1.4909487152099598E+002
 20
2.8976573562621809E+002
 30
0.0000000000000000E+000
 11
-1.4909487152099567E+002
 21
2.5976573562621809E+002
 31
0.0000000000000000E+000
  0
LINE
  8
Walls
100
AcDbLine
 10
-1.4909487152099530E+002
 20
2.2476573562621809E+002
 30
0.0000000000000000E+000
 11
-1.4909487152099493E+002
 21
1.8876573562621809E+002
 31
0.0000000000000000E+000
  0
LINE
  8
Walls
100
AcDbLine
 10
-1.4909487152099567E+002
 20
2.5976573562621809E+002
 30
0.0000000000000000E+000
 11
-1.5359487152099567E+002
 21
2.5976573562621803E+002
 31
0.0000000000000000E+000
  0
LINE
  8
Walls
100
AcDbLine
 10
-2.8409487152099553E+002
 20
2.6976573562621712E+002
 30
0.0000000000000000E+000
 11
-2.8709487152099558E+002
 21
2.6976573562621712E+002
 31
0.0000000000000000E+000
  0
LINE
  8
Walls
100
AcDbLine
 10
-2.7809487152099547E+002
 20
2.6376573562621718E+002
 30
0.0000000000000000E+000
 11
-2.8709487152099553E+002
 21
2.6376573562621712E+002
 31
0.0000000000000000E+000
  0
LINE
  8
Walls
100
AcDbLine
 10
-3.2309487152099558E+002
 20
2.6976573562621684E+002
 30
0.0000000000000000E+000
 11
-3.2309487152099553E+002
 21
2.6376573562621712E+002
 31
0.0000000000000000E+000
  0
LINE
  8
Walls
100
AcDbLine
 10
-2.7809487152099524E+002
 20
2.3376573562621718E+002
 30
0.0000000000000000E+000
 11
-2.8259487152099638E+002
 21
2.3376573562621718E+002
 31
0.0000000000000000E+000
  0
LINE
  8
Walls
100
AcDbLine
 10
-2.7809487152099524E+002
 20
2.3376573562621718E+002
 30
0.0000000000000000E+000
 11
-2.7809487152099484E+002
 21
1.9326573562621721E+002
 31
0.0000000000000000E+000
  0
LINE
  8
Walls
100
AcDbLine
 10
-2.7809487152099575E+002
 20
2.8976573562621718E+002
 30
0.0000000000000000E+000
 11
-1.5359487152099575E+002
 21
2.8976573562621803E+002
 31
0.0000000000000000E+000
  0
LINE
  8
Walls
100
AcDbLine
 10
-2.7809487152099575E+002
 20
2.8976573562621718E+002
 30
0.0000000000000000E+000
 11
-2.7809487152099547E+002
 21
2.6376573562621718E+002
 31
0.0000000000000000E+000
  0
LINE
  8
Walls
100
AcDbLine
 10
-1.4909487152099493E+002
 20
1.8876573562621809E+002
 30
0.0000000000000000E+000
 11
-2.7809487152099621E+002
 21
1.8876573562621718E+002
 31
0.0000000000000000E+000
  0
LINE
  8
Walls
100
AcDbLine
 10
-2.8709487152099558E+002
 20
2.6976573562621712E+002
 30
0.0000000000000000E+000
 11
-2.8709487152099553E+002
 21
2.6376573562621712E+002
 31
0.0000000000000000E+000
  0
LINE
  8
Walls
100
AcDbLine
 10
-1.5359487152099496E+002
 20
1.9326573562621806E+002
 30
0.0000000000000000E+000
 11
-2.7809487152099484E+002
 21
1.9326573562621721E+002
 31
0.0000000000000000E+000
  0
LINE
  8
Walls
100
AcDbLine
 10
-2.8259487152099626E+002
 20
1.4326573562621908E+002
 30
0.0000000000000000E+000
 11
-2.8259487152099661E+002
 21
2.3376573562621718E+002
 31
0.0000000000000000E+000
  0
LINE
  8
Walls
100
AcDbLine
 10
-2.7809487152099626E+002
 20
1.4326573562621908E+002
 30
0.0000000000000000E+000
 11
-2.7809487152099643E+002
 21
1.8876573562621718E+002
 31
0.0000000000000000E+000
  0
LINE
  8
Walls
100
AcDbLine
 10
-4.6094871520995703E+001
 20
-6.7342643737800572E+000
 30
0.0000000000000000E+000
 11
2.3290512847900425E+002
 21
-6.7342643737800607E+000
 31
0.0000000000000000E+000
  0
LINE
  8
Walls
100
AcDbLine
 10
-4.9094871520995881E+001
 20
2.8265735626220383E+001
 30
0.0000000000000000E+000
 11
-4.9094871520995895E+001
 21
3.4265735626220561E+001
 31
0.0000000000000000E+000
  0
LINE
  8
Walls
100
AcDbLine
 10
-4.6094871520995852E+001
 20
3.4265735626220561E+001
 30
0.0000000000000000E+000
 11
-4.6094871520996207E+001
 21
1.3176573562621883E+002
 31
0.0000000000000000E+000
  0
LINE
  8
Walls
100
AcDbLine
 10
-4.9094871520995881E+001
 20
2.8265735626220383E+001
 30
0.0000000000000000E+000
 11
-4.6094871520995831E+001
 21
2.8265735626220383E+001
 31
0.0000000000000000E+000
  0
LINE
  8
Walls
100
AcDbLine
 10
-4.9094871520995895E+001
 20
3.4265735626220561E+001
 30
0.0000000000000000E+000
 11
-4.6094871520995852E+001
 21
3.4265735626220561E+001
 31
0.0000000000000000E+000
  0
LINE
  8
Walls
100
AcDbLine
 10
-4.1594871520995760E+001
 20
2.2657356262207027E+000
 30
0.0000000000000000E+000
 11
-4.6094871520995738E+001
 21
2.2657356262207022E+000
 31
0.0000000000000000E+000
  0
LINE
  8
Walls
100
AcDbLine
 10
-4.1594871520995760E+001
 20
2.5265735626220383E+001
 30
0.0000000000000000E+000
 11
-4.6094871520995738E+001
 21
2.5265735626220383E+001
 31
0.0000000000000000E+000
  0
LINE
  8
Walls
100
AcDbLine
 10
-4.1594871520995753E+001
 20
-7.3426437377929688E-001
 30
0.0000000000000000E+000
 11
-4.1594871520995760E+001
 21
2.2657356262207027E+000
 31
0.0000000000000000E+000
  0
LINE
  8
Walls
100
AcDbLine
 10
-4.1594871520995838E+001
 20
2.5265735626220383E+001
 30
0.0000000000000000E+000
 11
-4.1594871520995959E+001
 21
6.0265735626220703E+001
 31
0.0000000000000000E+000
  0
LINE
  8
Walls
100
AcDbLine
 10
-4.6094871520995703E+001
 20
-6.7342643737800572E+000
 30
0.0000000000000000E+000
 11
-4.6094871520995738E+001
 21
2.2657356262207018E+000
 31
0.0000000000000000E+000
  0
LINE
  8
Walls
100
AcDbLine
 10
-4.6094871520995817E+001
 20
2.5265735626220383E+001
 30
0.0000000000000000E+000
 11
-4.6094871520995831E+001
 21
2.8265735626220380E+001
 31
0.0000000000000000E+000
  0
LINE
  8
Walls
100
AcDbLine
 10
-5.1659487152099553E+002
 20
2.6976573562621547E+002
 30
0.0000000000000000E+000
 11
-5.1659487152099257E+002
 21
-1.4734264373782542E+001
 31
0.0000000000000000E+000
  0
LINE
  8
Walls
100
AcDbLine
 10
-5.1059487152099541E+002
 20
2.6376573562621553E+002
 30
0.0000000000000000E+000
 11
-5.1059487152099337E+002
 21
6.5765735626217463E+001
 31
0.0000000000000000E+000
  0
LINE
  8
Walls
100
AcDbLine
 10
-5.1059487152099331E+002
 20
6.1265735626217463E+001
 30
0.0000000000000000E+000
 11
-5.1059487152099257E+002
 21
-8.7342643737825192E+000
 31
0.0000000000000000E+000
  0
LINE
  8
Walls
100
AcDbLine
 10
-3.6109487152099564E+002
 20
3.9265735626218785E+001
 30
0.0000000000000000E+000
 11
-3.5209487152099564E+002
 21
3.9265735626218785E+001
 31
0.0000000000000000E+000
  0
LINE
  8
Walls
100
AcDbLine
 10
-3.9559487152099564E+002
 20
3.9265735626218287E+001
 30
0.0000000000000000E+000
 11
-3.9109487152099564E+002
 21
3.9265735626218351E+001
 31
0.0000000000000000E+000
  0
LINE
  8
Walls
100
AcDbLine
 10
-4.0009487152099587E+002
 20
6.1265735626218259E+001
 30
0.0000000000000000E+000
 11
-4.0009487152099558E+002
 21
3.4765735626218252E+001
 31
0.0000000000000000E+000
  0
LINE
  8
Walls
100
AcDbLine
 10
-4.0009487152099587E+002
 20
6.1265735626218259E+001
 30
0.0000000000000000E+000
 11
-5.1059487152099331E+002
 21
6.1265735626217463E+001
 31
0.0000000000000000E+000
  0
LINE
  8
Walls
100
AcDbLine
 10
-3.9559487152099592E+002
 20
6.5765735626218287E+001
 30
0.0000000000000000E+000
 11
-3.9559487152099564E+002
 21
3.9265735626218287E+001
 31
0.0000000000000000E+000
  0
LINE
  8
Walls
100
AcDbLine
 10
-3.9109487152099564E+002
 20
3.9265735626218351E+001
 30
0.0000000000000000E+000
 11
-3.9109487152099558E+002
 21
3.4765735626218252E+001
 31
0.0000000000000000E+000
  0
LINE
  8
Walls
100
AcDbLine
 10
-4.0009487152099558E+002
 20
3.4765735626218252E+001
 30
0.0000000000000000E+000
 11
-3.9109487152099558E+002
 21
3.4765735626218252E+001
 31
0.0000000000000000E+000
  0
LINE
  8
Walls
100
AcDbLine
 10
-3.6109487152099564E+002
 20
3.9265735626218785E+001
 30
0.0000000000000000E+000
 11
-3.6109487152099558E+002
 21
3.4765735626218785E+001
 31
0.0000000000000000E+000
  0
LINE
  8
Walls
100
AcDbLine
 10
-3.9559487152099592E+002
 20
6.5765735626218287E+001
 30
0.0000000000000000E+000
 11
-5.1059487152099337E+002
 21
6.5765735626217463E+001
 31
0.0000000000000000E+000
  0
LINE
  8
Walls
100
AcDbLine
 10
-3.6109487152099558E+002
 20
3.4765735626218785E+001
 30
0.0000000000000000E+000
 11
-3.5659487152099558E+002
 21
3.4765735626218785E+001
 31
0.0000000000000000E+000
  0
LINE
  8
Walls
100
AcDbLine
 10
-3.5209487152099564E+002
 20
3.9265735626218785E+001
 30
0.0000000000000000E+000
 11
-3.5209487152099513E+002
 21
-8.7342643737814072E+000
 31
0.0000000000000000E+000
  0
LINE
  8
Walls
100
AcDbLine
 10
-3.5659487152099558E+002
 20
3.4765735626218785E+001
 30
0.0000000000000000E+000
 11
-3.5659487152099507E+002
 21
-8.7342643737825227E+000
 31
0.0000000000000000E+000
  0
LINE
  8
Walls
100
AcDbLine
 10
-3.5209487152099513E+002
 20
-8.7342643737814072E+000
 30
0.0000000000000000E+000
 11
-2.8259487152099513E+002
 21
-8.7342643737809169E+000
 31
0.0000000000000000E+000
  0
LINE
  8
Walls
100
AcDbLine
 10
-3.5659487152099507E+002
 20
-8.7342643737825227E+000
 30
0.0000000000000000E+000
 11
-5.1059487152099257E+002
 21
-8.7342643737825192E+000
 31
0.0000000000000000E+000
  0
LINE
  8
Walls
100
AcDbLine
 10
-5.1659487152099257E+002
 20
-1.4734264373782542E+001
 30
0.0000000000000000E+000
 11
-2.7659487152099507E+002
 21
-1.4734264373780874E+001
 31
0.0000000000000000E+000
  0
LINE
  8
Walls
100
AcDbLine
 10
-5.1059487152099541E+002
 20
2.6376573562621553E+002
 30
0.0000000000000000E+000
 11
-3.2309487152099553E+002
 21
2.6376573562621712E+002
 31
0.0000000000000000E+000
  0
LINE
  8
Walls
100
AcDbLine
 10
-3.2309487152099558E+002
 20
2.6976573562621684E+002
 30
0.0000000000000000E+000
 11
-5.1659487152099553E+002
 21
2.6976573562621547E+002
 31
0.0000000000000000E+000
  0
LINE
  8
Walls
100
AcDbLine
 10
2.1905128479004354E+001
 20
1.7476573562621928E+002
 30
0.0000000000000000E+000
 11
2.1905128479004411E+001
 21
1.7026573562621877E+002
 31
0.0000000000000000E+000
  0
LINE
  8
Walls
100
AcDbLine
 10
-8.0948715209956319E+000
 20
1.7476573562621906E+002
 30
0.0000000000000000E+000
 11
-8.0948715209955893E+000
 21
1.7026573562621877E+002
 31
0.0000000000000000E+000
  0
LINE
  8
Walls
100
AcDbLine
 10
9.6405128479003707E+001
 20
1.7026573562621977E+002
 30
0.0000000000000000E+000
 11
2.1905128479004414E+001
 21
1.7026573562621925E+002
 31
0.0000000000000000E+000
  0
LINE
  8
Walls
100
AcDbLine
 10
-8.0948715209955928E+000
 20
1.7026573562621906E+002
 30
0.0000000000000000E+000
 11
-4.5094871520995554E+001
 21
1.7026573562621880E+002
 31
0.0000000000000000E+000
  0
LINE
  8
Walls
100
AcDbLine
 10
8.7405128479003679E+001
 20
1.7476573562621974E+002
 30
0.0000000000000000E+000
 11
2.1905128479004357E+001
 21
1.7476573562621928E+002
 31
0.0000000000000000E+000
  0
LINE
  8
Walls
100
AcDbLine
 10
-8.0948715209956283E+000
 20
1.7476573562621906E+002
 30
0.0000000000000000E+000
 11
-1.2594871520996321E+001
 21
1.7476573562621903E+002
 31
0.0000000000000000E+000
  0
LINE
  8
Walls
100
AcDbLine
 10
-6.1094871520995980E+001
 20
2.8976573562621843E+002
 30
0.0000000000000000E+000
 11
-6.1094871520996008E+001
 21
2.9576573562621843E+002
 31
0.0000000000000000E+000
  0
LINE
  8
Walls
100
AcDbLine
 10
-1.3309487152099598E+002
 20
2.8976573562621843E+002
 30
0.0000000000000000E+000
 11
-1.3309487152099601E+002
 21
2.9576573562621843E+002
 31
0.0000000000000000E+000
  0
LINE
  8
Walls
100
AcDbLine
 10
-4.5094871520995973E+001
 20
2.8976573562621883E+002
 30
0.0000000000000000E+000
 11
-6.1094871520995980E+001
 21
2.8976573562621871E+002
 31
0.0000000000000000E+000
  0
LINE
  8
Walls
100
AcDbLine
 10
2.3290512847900311E+002
 20
2.9576573562622070E+002
 30
0.0000000000000000E+000
 11
-6.1094871520996023E+001
 21
2.9576573562621866E+002
 31
0.0000000000000000E+000
  0
LINE
  8
Walls
100
AcDbLine
 10
-1.3309487152099601E+002
 20
2.9576573562621820E+002
 30
0.0000000000000000E+000
 11
-2.8409487152099581E+002
 21
2.9576573562621712E+002
 31
0.0000000000000000E+000
  0
LINE
  8
Walls
100
AcDbLine
 10
-1.3309487152099598E+002
 20
2.8976573562621820E+002
 30
0.0000000000000000E+000
 11
-1.4909487152099598E+002
 21
2.8976573562621809E+002
 31
0.0000000000000000E+000
  0
LINE
  8
Walls
100
AcDbLine
 10
-2.7809487152099547E+002
 20
2.6376573562621718E+002
 30
0.0000000000000000E+000
 11
-1.5359487152099570E+002
 21
2.6376573562621718E+002
 31
0.0000000000000000E+000
  0
LINE
  8
Walls
100
AcDbLine
 10
-1.5359487152099510E+002
 20
2.2126573562621806E+002
 30
0.0000000000000000E+000
 11
-2.7809487152099496E+002
 21
2.2126573562621721E+002
 31
0.0000000000000000E+000
  0
LINE
  8
Windows
100
AcDbLine
 10
-1.6659487152099592E+002
 20
3.4265735626220042E+001
 30
0.0000000000000000E+000
 11
-1.6659487152099587E+002
 21
2.8265735626220046E+001
 31
0.0000000000000000E+000
  0
LINE
  8
Windows
100
AcDbLine
 10
-2.6659487152099592E+002
 20
3.4265735626219069E+001
 30
0.0000000000000000E+000
 11
-2.6659487152099587E+002
 21
2.8265735626219069E+001
 31
0.0000000000000000E+000
  0
LINE
  8
Windows
100
AcDbLine
 10
-2.6659487152099587E+002
 20
3.1265735626219069E+001
 30
0.0000000000000000E+000
 11
-1.6659487152099590E+002
 21
3.1265735626220042E+001
 31
0.0000000000000000E+000
  0
LINE
  8
Windows
100
AcDbLine
 10
1.8940512847900320E+002
 20
2.8976573562622025E+002
 30
0.0000000000000000E+000
 11
1.8940512847900317E+002
 21
2.9576573562622019E+002
 31
0.0000000000000000E+000
  0
LINE
  8
Windows
100
AcDbLine
 10
1.2940512847900320E+002
 20
2.8976573562622025E+002
 30
0.0000000000000000E+000
 11
1.2940512847900317E+002
 21
2.9576573562622019E+002
 31
0.0000000000000000E+000
  0
LINE
  8
Windows
100
AcDbLine
 10
1.8940512847900317E+002
 20
2.9276573562622025E+002
 30
0.0000000000000000E+000
 11
1.2940512847900317E+002
 21
2.9276573562622025E+002
 31
0.0000000000000000E+000
  0
LINE
  8
Windows
100
AcDbLine
 10
6.7405128479003196E+001
 20
2.8976573562621940E+002
 30
0.0000000000000000E+000
 11
6.7405128479003181E+001
 21
2.9576573562621934E+002
 31
0.0000000000000000E+000
  0
LINE
  8
Windows
100
AcDbLine
 10
7.4051284790031957E+000
 20
2.8976573562621940E+002
 30
0.0000000000000000E+000
 11
7.4051284790031815E+000
 21
2.9576573562621934E+002
 31
0.0000000000000000E+000
  0
LINE
  8
Windows
100
AcDbLine
 10
6.7405128479003196E+001
 20
2.9276573562621934E+002
 30
0.0000000000000000E+000
 11
7.4051284790031886E+000
 21
2.9276573562621934E+002
 31
0.0000000000000000E+000
  0
ENDSEC
  0
EOF
